<svg xmlns="http://www.w3.org/2000/svg" width="74.248" height="74.248" viewBox="0 0 74.248 74.248">
  <g id="Group_1640" data-name="Group 1640" transform="translate(-792.999 -258.444)">
    <ellipse id="Ellipse_32" data-name="Ellipse 32" cx="37.124" cy="37.124" rx="37.124" ry="37.124" transform="translate(793.001 258.444)" fill="#f5f5f5"/>
    <path id="Path_4087" data-name="Path 4087" d="M59.21-34.268H12.4v-2.445a5.528,5.528,0,0,1,3.657-1.377h1.12V-40h-1.12a7.418,7.418,0,0,0-4.613,1.591A7.416,7.416,0,0,0,6.828-40H5.708v1.911h1.12a5.528,5.528,0,0,1,3.657,1.377v2.445H3.8a.956.956,0,0,0-.955.955v17.2a.956.956,0,0,0,.955.955h6.688v2.445a5.528,5.528,0,0,1-3.657,1.377H5.708v1.911h1.12a7.416,7.416,0,0,0,4.613-1.591,7.418,7.418,0,0,0,4.613,1.591h1.12v-1.911h-1.12A5.528,5.528,0,0,1,12.4-12.715V-15.16H59.21a.956.956,0,0,0,.955-.955v-17.2A.956.956,0,0,0,59.21-34.268ZM4.753-17.071V-32.357h5.732v6.688H8.574v1.911h1.911v6.688Zm53.5,0H12.4v-6.688h1.911v-1.911H12.4v-6.688H58.255Z" transform="translate(798.158 320.282)" fill="#003970"/>
  </g>
</svg>
