<svg xmlns="http://www.w3.org/2000/svg" xmlns:xlink="http://www.w3.org/1999/xlink" width="21" height="32" viewBox="0 0 21 32">
  <defs>
    <clipPath id="clip-File">
      <rect width="21" height="32"/>
    </clipPath>
  </defs>
  <g id="File" clip-path="url(#clip-File)">
    <rect width="21" height="32" fill="#fff"/>
    <path id="Path_5799" data-name="Path 5799" d="M29.444,3.568a2.588,2.588,0,0,0-2.59,2.588V30.523a2.588,2.588,0,0,0,2.59,2.59H43.087a2.586,2.586,0,0,0,2.59-2.59V8.106A.152.152,0,0,0,45.633,8L41.247,3.612a.152.152,0,0,0-.108-.044Zm.493,1.08H40.568l.044,1.8A2.384,2.384,0,0,0,43,8.828h1.656V24.669H27.876V6.892A2.185,2.185,0,0,1,29.938,4.648Z" transform="translate(-25.854 -2.568)" fill="#003970"/>
  </g>
</svg>
