<svg xmlns="http://www.w3.org/2000/svg" xmlns:xlink="http://www.w3.org/1999/xlink" width="76" height="76" viewBox="0 0 76 76">
  <defs>
    <clipPath id="clip-icon1_">
      <rect width="76" height="76"/>
    </clipPath>
  </defs>
  <g id="icon1_" data-name="icon1 " clip-path="url(#clip-icon1_)">
    <rect width="76" height="76" fill="#fff"/>
    <g id="Group_1641" data-name="Group 1641" transform="translate(-411.999 -291)">
      <ellipse id="Ellipse_69" data-name="Ellipse 69" cx="37.124" cy="37.124" rx="37.124" ry="37.124" transform="translate(413 292)" fill="#f5f5f5"/>
      <g id="Group_1638" data-name="Group 1638" transform="translate(428 308.846)">
        <g id="Group_816" data-name="Group 816" transform="translate(0 0)">
          <g id="Group_808" data-name="Group 808" transform="translate(0 5.927)">
            <path id="Path_4082" data-name="Path 4082" d="M54.932,63.94H18.744A4.146,4.146,0,0,1,15,60.072V31.995C15,30.248,16.56,29,18.744,29h8.111a.936.936,0,1,1,0,1.872H18.744c-.749,0-1.872.312-1.872,1.123V60.072a2.322,2.322,0,0,0,1.872,2H54.932c.686,0,1.248-1.061,1.248-2V31.995c0-.686-.187-1.123-1.248-1.123H46.2A.936.936,0,1,1,46.2,29h8.735a2.821,2.821,0,0,1,3.12,2.995V60.072C58.051,61.944,56.866,63.94,54.932,63.94Z" transform="translate(-15 -29)" fill="#003970"/>
          </g>
          <g id="Group_813" data-name="Group 813" transform="translate(13.695)">
            <g id="Group_811" data-name="Group 811" transform="translate(0 17.564)">
              <g id="Group_809" data-name="Group 809">
                <path id="Path_4083" data-name="Path 4083" d="M44.843,56.479a.938.938,0,0,1-.686-.25l-6.926-6.988a.926.926,0,0,1,1.31-1.31l6.926,6.988a.9.9,0,0,1,0,1.31A.894.894,0,0,1,44.843,56.479Z" transform="translate(-36.95 -47.65)" fill="#003970"/>
              </g>
              <g id="Group_810" data-name="Group 810" transform="translate(6.926 0.062)">
                <path id="Path_4084" data-name="Path 4084" d="M49.017,56.516a.938.938,0,0,1-.686-.25.9.9,0,0,1,0-1.31l6.988-6.926a.926.926,0,0,1,1.31,1.31l-6.988,6.926A.894.894,0,0,1,49.017,56.516Z" transform="translate(-48.05 -47.75)" fill="#003970"/>
              </g>
            </g>
            <g id="Group_812" data-name="Group 812" transform="translate(6.894)">
              <path id="Path_4085" data-name="Path 4085" d="M48.936,45.081A.96.96,0,0,1,48,44.145V20.436a.936.936,0,0,1,1.872,0V44.145A.96.96,0,0,1,48.936,45.081Z" transform="translate(-48 -19.5)" fill="#003970"/>
            </g>
          </g>
          <g id="Group_814" data-name="Group 814" transform="translate(12.167 30.885)">
            <path id="Path_4086" data-name="Path 4086" d="M52.906,70.872H35.436a.936.936,0,1,1,0-1.872h17.47a.936.936,0,1,1,0,1.872Z" transform="translate(-34.5 -69)" fill="#003970"/>
          </g>
        </g>
      </g>
    </g>
  </g>
</svg>
