<svg width="112" height="21" xmlns="http://www.w3.org/2000/svg"><path d="M79.55 5.104h-3.747v13.47a.464.464 0 0 1-.462.462h-3.03a.464.464 0 0 1-.461-.462V5.104h-3.77a.445.445 0 0 1-.462-.44V2.283a.445.445 0 0 1 .462-.44h11.47a.467.467 0 0 1 .495.44v2.381a.464.464 0 0 1-.495.44zm29.71 13.922h-3.677a.605.605 0 0 1-.6-.348l-3.007-4.88-2.705 4.776c-.163.277-.324.462-.578.462h-3.425a.306.306 0 0 1-.346-.302.45.45 0 0 1 .045-.163l4.835-8.348-4.88-7.93a.287.287 0 0 1 .302-.44h3.723c.247 0 .437.232.578.44l2.866 4.67 2.592-4.673a.741.741 0 0 1 .578-.44h3.417a.334.334 0 0 1 .348.302.348.348 0 0 1-.047.138l-4.766 8.153 4.979 8.13c.04.072.064.151.069.233 0 .129-.116.22-.302.22zm-42.828-.531l-3.491-6.523c1.687-.67 2.984-2.174 2.984-4.622v-.301c0-4.094-3.004-5.203-5.16-5.203H53.69a.462.462 0 0 0-.462.462v16.266c.001.254.207.46.462.462h3.007a.464.464 0 0 0 .462-.462v-5.885h1.897l3.096 5.885c.116.232.207.462.462.462h3.537c.248 0 .346-.116.346-.277a.598.598 0 0 0-.066-.264zM61.985 7.35c0 1.295-.317 2.152-2.745 2.152h-2.088V4.986h2.25c2.037 0 2.585 1.02 2.585 2.058l-.002.306zM50.047 4.924a.462.462 0 0 0 .462-.462v-2.15c0-.3-.139-.42-.462-.466H40.41a.462.462 0 0 0-.462.462v16.266c.002.254.208.46.462.462h9.636c.323-.047.462-.188.462-.494v-2.15a.464.464 0 0 0-.462-.462h-5.712a.464.464 0 0 1-.462-.46v-3.658h5.988a.464.464 0 0 0 .465-.462v-2.2a.464.464 0 0 0-.465-.462h-5.988V5.386c0-.256.206-.463.462-.465l5.712.003zm42.197 0a.464.464 0 0 0 .465-.462v-2.15c0-.3-.139-.42-.465-.466H82.61a.464.464 0 0 0-.462.462v16.266c.001.254.207.46.462.462h9.635c.326-.047.465-.188.465-.494v-2.15a.464.464 0 0 0-.465-.462h-5.712a.462.462 0 0 1-.462-.46v-3.658h5.99a.462.462 0 0 0 .461-.462v-2.2a.462.462 0 0 0-.462-.462h-5.99V5.386c0-.256.207-.463.462-.465l5.712.003zM38.111 2.216a.358.358 0 0 0-.393-.37H34.48a.47.47 0 0 0-.44.417L31.154 15.61c-.047.247-.116.349-.324.349-.207 0-.276-.092-.323-.349l-2.89-13.341a.494.494 0 0 0-.465-.418H23.94a.39.39 0 0 0-.415.371c0 .047.022.07.022.116 0 0 3.746 15.565 3.77 15.656a1.34 1.34 0 0 0 1.411 1.04h4.2a1.337 1.337 0 0 0 1.406-1.015v-.025l3.76-15.656c.003-.04.01-.08.017-.12zm73.691.331a.768.768 0 1 1-1.537 0 .768.768 0 0 1 1.537 0zm-.134 0a.632.632 0 1 0-1.265 0 .632.632 0 0 0 1.265 0zm-.267.423h-.168l-.163-.27c-.034-.052-.062-.079-.086-.079h-.082v.349h-.143v-.848h.306a.363.363 0 0 1 .183.04.23.23 0 0 1 .106.21.22.22 0 0 1-.168.247v.017l.215.334zm-.195-.598a.094.094 0 0 0-.044-.09.247.247 0 0 0-.1-.014h-.162v.208h.163a.247.247 0 0 0 .101-.015.091.091 0 0 0 .037-.087l.005-.002zM11.468 4.714L7.493 11.92v4.17l3.975-7.207zm3.474 10.776a1.988 1.988 0 0 0 3.975 0V7.865l-3.975 7.204v.423zM4.02 5.31a1.988 1.988 0 0 0-3.976 0v7.628L4.02 5.727v-.418zm7.406-3.877A1.991 1.991 0 0 0 9.45.015a1.999 1.999 0 0 0-1.673 1.042L.257 14.685a1.987 1.987 0 1 0 3.498 1.885l7.516-13.628a1.977 1.977 0 0 0 .153-1.507m6.47 2.005a1.976 1.976 0 0 0-2.69.804L7.684 17.87a1.987 1.987 0 0 0 3.498 1.885l7.52-13.63a1.976 1.976 0 0 0-.808-2.688" fill="#FFF"/></svg>