<?xml version="1.0" encoding="utf-8"?><svg xmlns="http://www.w3.org/2000/svg" xmlns:xlink="http://www.w3.org/1999/xlink"><symbol viewBox="0 0 20 20" id="i-account" xmlns="http://www.w3.org/2000/svg"><ellipse cx="9.909" cy="8.818" rx="3.182" ry="3.364"/><path d="M10 0C4.477 0 0 4.477 0 10s4.477 10 10 10 10-4.477 10-10A10 10 0 0 0 10 0zm5.182 16.91a5.455 5.455 0 0 0-10.364 0 8.636 8.636 0 1 1 10.364 0z"/></symbol><symbol viewBox="0 0 17 4" id="i-action-menu" xmlns="http://www.w3.org/2000/svg"><g transform="translate(.5)"><circle cx="2" cy="2" r="2"/><circle cx="8" cy="2" r="2"/><circle cx="14" cy="2" r="2"/></g></symbol><symbol viewBox="0 0 35 35" id="i-add-field-above" xmlns="http://www.w3.org/2000/svg"><g fill="none"><path d="M7.517 20.2h20.3v-5.367h-20.3V20.2zm0 1.167v5.366h20.3v-5.366h-20.3zM6.933 7.133H28.4c.322 0 .583.262.583.584v19.6a.584.584 0 0 1-.583.583H6.933a.583.583 0 0 1-.583-.583v-19.6c0-.322.261-.584.583-.584z" fill="#002C5F"/><path d="M27 .25a7.074 7.074 0 0 0-7 7 7.074 7.074 0 0 0 7 7 7.074 7.074 0 0 0 7-7 7.074 7.074 0 0 0-7-7" fill="#A3B536"/><path fill="#FFF" d="M30.267 6.727h-2.744V3.983h-1.046v2.744h-2.744v1.046h2.744v2.744h1.046V7.773h2.744V6.727"/></g></symbol><symbol viewBox="0 0 35 35" id="i-add-field-below" xmlns="http://www.w3.org/2000/svg"><g fill="none"><path d="M27.817 20.167V14.8h-20.3v5.367h20.3zm0-6.534V8.267h-20.3v5.366h20.3zM6.933 7.1H28.4c.322 0 .583.261.583.583v19.6a.584.584 0 0 1-.583.584H6.933a.583.583 0 0 1-.583-.584v-19.6c0-.322.261-.583.583-.583z" fill="#002C5F"/><path d="M27 34.75a7.074 7.074 0 0 1-7-7 7.074 7.074 0 0 1 7-7c3.85.04 6.96 3.15 7 7a7.074 7.074 0 0 1-7 7" fill="#A3B536"/><path fill="#FFF" d="M30.267 28.273h-2.744v2.744h-1.046v-2.744h-2.744v-1.046h2.744v-2.744h1.046v2.744h2.744v1.046"/></g></symbol><symbol viewBox="0 0 12 12" id="i-aggregation" xmlns="http://www.w3.org/2000/svg"><path d="M9.5 2.5h-6l2 3.5-2 3.5h6" stroke-width="2" stroke="#000" fill="none"/></symbol><symbol viewBox="0 0 19 19" id="i-alert" xmlns="http://www.w3.org/2000/svg"><title>alert</title><path d="M9.5 0A9.6 9.6 0 0 0 0 9.5 9.6 9.6 0 0 0 9.5 19 9.6 9.6 0 0 0 19 9.5 9.6 9.6 0 0 0 9.5 0zm0 1.5a7.9 7.9 0 0 1 5.2 1.9L3.4 14.7a7.9 7.9 0 0 1-1.9-5.2 8 8 0 0 1 8-8zm0 16a8.6 8.6 0 0 1-5-1.7L15.8 4.5a8.6 8.6 0 0 1 1.7 5 8 8 0 0 1-8 8z"/></symbol><symbol viewBox="0 0 17 17" id="i-arrows" xmlns="http://www.w3.org/2000/svg"><path d="M13.6 5.1l-1.198 1.199 1.343 1.351H3.4v1.7h10.345l-1.343 1.351L13.6 11.9 17 8.5z"/><path d="M3.4 5.1l1.198 1.199L3.256 7.65H13.6v1.7H3.255l1.343 1.351L3.4 11.9 0 8.5z"/><path d="M5.1 13.6l1.199-1.198 1.351 1.343V3.4h1.7v10.345l1.351-1.343L11.9 13.6 8.5 17z"/><path d="M11.9 3.4l-1.199 1.198L9.35 3.256V13.6h-1.7V3.255L6.298 4.598 5.1 3.4 8.5 0z"/></symbol><symbol viewBox="0 0 12 12" id="i-asc" xmlns="http://www.w3.org/2000/svg"><defs><path id="aha" d="M5 3h2v9H5z"/><path d="M8.993 5.2V3.493h-6v6H4.7V5.2h4.293z" id="ahb"/></defs><g fill="none" fill-rule="evenodd"><use fill="#D8D8D8" xlink:href="#aha"/><path stroke="#000" d="M5.5 3.5h1v8h-1z"/><g transform="rotate(45 5.993 6.493)"><use fill="#D8D8D8" xlink:href="#ahb"/><path stroke="#000" d="M8.493 4.7v-.707h-5v5H4.2V4.7h4.293z"/></g></g></symbol><symbol viewBox="0 0 13 15" id="i-calendar-blue" xmlns="http://www.w3.org/2000/svg"><path d="M11.433 13.158H1.475V5.32h10.05v7.837h-.092zM9.313.25v1.475H3.595V.25H2.12v1.475h-.646C.645 1.725 0 2.371 0 3.108v10.05c0 .83.645 1.475 1.475 1.475h10.05c.83 0 1.475-.645 1.475-1.475V3.108c0-.83-.645-1.475-1.475-1.475h-.738V.25H9.312zm.737 7.93H6.454v3.595h3.596V8.179z" fill="#0064D6"/></symbol><symbol viewBox="0 0 13 15" id="i-calendar-gray" xmlns="http://www.w3.org/2000/svg"><path d="M11.433 13.158H1.475V5.32h10.05v7.837h-.092zM9.313.25v1.475H3.595V.25H2.12v1.475h-.646C.645 1.725 0 2.371 0 3.108v10.05c0 .83.645 1.475 1.475 1.475h10.05c.83 0 1.475-.645 1.475-1.475V3.108c0-.83-.645-1.475-1.475-1.475h-.738V.25H9.312zm.737 7.93H6.454v3.595h3.596V8.179z" fill="#767676"/></symbol><symbol viewBox="0 0 13 15" id="i-calendar-no-fill" xmlns="http://www.w3.org/2000/svg"><path d="M11.433 13.158H1.475V5.32h10.05v7.837h-.092zM9.313.25v1.475H3.595V.25H2.12v1.475h-.646C.645 1.725 0 2.371 0 3.108v10.05c0 .83.645 1.475 1.475 1.475h10.05c.83 0 1.475-.645 1.475-1.475V3.108c0-.83-.645-1.475-1.475-1.475h-.738V.25H9.312zm.737 7.93H6.454v3.595h3.596V8.179z"/></symbol><symbol viewBox="0 0 12 12" id="i-cancel" xmlns="http://www.w3.org/2000/svg"><path d="M9 8.154L8.154 9 6 6.846 3.846 9 3 8.154 5.154 6 3 3.846 3.846 3 6 5.154 8.154 3 9 3.846 6.846 6z"/></symbol><symbol viewBox="0 0 18 18" id="i-check" xmlns="http://www.w3.org/2000/svg"><title>check</title><path d="M3 9.6l4 4.3 8-9.8" fill="none" stroke="#0064d6" stroke-linecap="round" stroke-linejoin="round" stroke-width="3"/></symbol><symbol viewBox="0 0 20 20" id="i-check-disabled" xmlns="http://www.w3.org/2000/svg"><path d="M3.5 10.6l4.3 4.7 8.7-10.6" fill="none" stroke="#767676" stroke-width="3" stroke-linecap="round" stroke-linejoin="round"/></symbol><symbol viewBox="0 0 18 18" id="i-check-green" xmlns="http://www.w3.org/2000/svg"><path d="M3 9.6l4 4.3 8-9.8" fill="none" stroke="#c3d941" stroke-linecap="round" stroke-linejoin="round" stroke-width="3"/></symbol><symbol viewBox="0 0 12 12" id="i-checkbox-checked" xmlns="http://www.w3.org/2000/svg"><defs><rect id="apa" width="12" height="12" rx="1"/></defs><g fill="none" fill-rule="evenodd"><use fill="#FFF" xlink:href="#apa"/><rect stroke="#000" x=".5" y=".5" width="11" height="11" rx="1"/><path stroke="#000" d="M9 3L6 8.5l-2.5-2"/></g></symbol><symbol viewBox="0 0 12 12" id="i-checkbox-checked-readonly" xmlns="http://www.w3.org/2000/svg"><defs><rect id="aqa" width="12" height="12" rx="1"/></defs><g fill="none" fill-rule="evenodd"><use fill="#D8D8D8" xlink:href="#aqa"/><rect stroke="#000" x=".5" y=".5" width="11" height="11" rx="1"/><path stroke="#000" d="M9 3L6 8.5l-2.5-2"/></g></symbol><symbol viewBox="0 0 12 12" id="i-checkbox-indeterminate" xmlns="http://www.w3.org/2000/svg"><defs><rect id="ara" width="12" height="12" rx="1"/></defs><g fill="none" fill-rule="evenodd"><use fill="#FFF" xlink:href="#ara"/><rect stroke="#000" x=".5" y=".5" width="11" height="11" rx="1"/><path fill="#000" d="M4 5h4v2H4z"/></g></symbol><symbol viewBox="0 0 12 12" id="i-checkbox-indeterminate-readonly" xmlns="http://www.w3.org/2000/svg"><defs><rect id="asa" width="12" height="12" rx="1"/></defs><g fill="none" fill-rule="evenodd"><use fill="#D8D8D8" xlink:href="#asa"/><rect stroke="#000" x=".5" y=".5" width="11" height="11" rx="1"/><path fill="#000" d="M4 5h4v2H4z"/></g></symbol><symbol viewBox="0 0 12 12" id="i-checkbox-unchecked" xmlns="http://www.w3.org/2000/svg"><defs><rect id="ata" width="12" height="12" rx="1"/></defs><g fill="none" fill-rule="evenodd"><use fill="#FFF" xlink:href="#ata"/><rect stroke="#000" x=".5" y=".5" width="11" height="11" rx="1"/></g></symbol><symbol viewBox="0 0 12 12" id="i-checkbox-unchecked-readonly" xmlns="http://www.w3.org/2000/svg"><defs><rect id="aua" width="12" height="12" rx="1"/></defs><g fill="none" fill-rule="evenodd"><use fill="#D8D8D8" xlink:href="#aua"/><rect stroke="#000" x=".5" y=".5" width="11" height="11" rx="1"/></g></symbol><symbol viewBox="0 0 11 11" id="i-chevron-down" xmlns="http://www.w3.org/2000/svg"><path fill="#3666B1" d="M0 3l4.033 4.033L5.5 8.5l1.467-1.467L11 3H7.975L5.5 5.475 3.025 3H0"/></symbol><symbol viewBox="0 0 11 11" id="i-chevron-down-blue" xmlns="http://www.w3.org/2000/svg"><path d="M0 3l4.033 4.033L5.5 8.5l1.467-1.467L11 3H7.975L5.5 5.475 3.025 3H0" fill="#0064D6"/></symbol><symbol viewBox="0 0 11 11" id="i-chevron-down-disabled" xmlns="http://www.w3.org/2000/svg"><path d="M0 3l4 4 1.5 1.5L7 7l4-4H8L5.5 5.5 3 3H0" fill="#636569"/></symbol><symbol viewBox="0 0 11 11" id="i-chevron-down-nofill" xmlns="http://www.w3.org/2000/svg"><path d="M0 3l4.033 4.033L5.5 8.5l1.467-1.467L11 3H7.975L5.5 5.475 3.025 3H0"/></symbol><symbol viewBox="0 0 5 10" id="i-chevron-left" xmlns="http://www.w3.org/2000/svg"><path d="M5 0L1.333 3.667 0 5l1.333 1.333L5 10V7.25L2.75 5 5 2.75V0"/></symbol><symbol viewBox="0 0 5 10" id="i-chevron-right" xmlns="http://www.w3.org/2000/svg"><path d="M0 10l3.667-3.667L5 5 3.667 3.667 0 0v2.75L2.25 5 0 7.25V10"/></symbol><symbol viewBox="0 0 11 11" id="i-chevron-up-blue" xmlns="http://www.w3.org/2000/svg"><path fill="#0064D6" d="M11 7.5L6.967 3.467 5.5 2 4.033 3.467 0 7.5h3.025L5.5 5.025 7.975 7.5H11"/></symbol><symbol viewBox="0 0 23 23" id="i-clock-blue" xmlns="http://www.w3.org/2000/svg"><path d="M11.25 4.5c-3.708 0-6.75 3.042-6.75 6.75S7.542 18 11.25 18c1.806 0 3.518-.665 4.754-1.996C17.239 14.673 18 13.056 18 11.25c-.095-3.708-3.137-6.75-6.75-6.75zm0 1.711c2.757 0 5.039 2.282 5.039 5.039 0 2.757-2.282 5.039-5.039 5.039-2.757 0-5.039-2.282-5.039-5.039 0-2.757 2.187-5.039 5.039-5.039zm-.856.76v4.754l3.328 1.997.95-1.426-2.661-1.616V6.972h-1.617z" fill="#0064D6"/></symbol><symbol viewBox="0 0 23 23" id="i-clock-gray" xmlns="http://www.w3.org/2000/svg"><path d="M11.25 4.5c-3.708 0-6.75 3.042-6.75 6.75S7.542 18 11.25 18c1.806 0 3.518-.665 4.754-1.996C17.239 14.673 18 13.056 18 11.25c-.095-3.708-3.137-6.75-6.75-6.75zm0 1.711c2.757 0 5.039 2.282 5.039 5.039 0 2.757-2.282 5.039-5.039 5.039-2.757 0-5.039-2.282-5.039-5.039 0-2.757 2.187-5.039 5.039-5.039zm-.856.76v4.754l3.328 1.997.95-1.426-2.661-1.616V6.972h-1.617z" fill="#767676"/></symbol><symbol viewBox="0 0 23 23" id="i-clock-no-fill" xmlns="http://www.w3.org/2000/svg"><path d="M11.25 4.5c-3.708 0-6.75 3.042-6.75 6.75S7.542 18 11.25 18c1.806 0 3.518-.665 4.754-1.996C17.239 14.673 18 13.056 18 11.25c-.095-3.708-3.137-6.75-6.75-6.75zm0 1.711c2.757 0 5.039 2.282 5.039 5.039 0 2.757-2.282 5.039-5.039 5.039-2.757 0-5.039-2.282-5.039-5.039 0-2.757 2.187-5.039 5.039-5.039zm-.856.76v4.754l3.328 1.997.95-1.426-2.661-1.616V6.972h-1.617z"/></symbol><symbol viewBox="0 0 21 21" id="i-clone" xmlns="http://www.w3.org/2000/svg"><g fill="none" fill-rule="evenodd"><path d="M-2-2h24v24H-2z"/><g stroke="#000" stroke-linecap="round" stroke-linejoin="round" stroke-width="1.25"><path d="M1.077 4.386h15.525v15.525H1.077z"/><path d="M4.438 3.243v-2.22h15.526V16.55h-2.22"/></g></g></symbol><symbol viewBox="0 0 13 13" id="i-close" xmlns="http://www.w3.org/2000/svg"><title>close</title><path d="M12.6 11.1L7.9 6.5l4.6-4.6L10.9.3 6.3 4.8 2.1.6.5 2.3l4.2 4.2-4.3 4.2L2 12.4l4.3-4.3 4.7 4.6 1.6-1.6z"/></symbol><symbol viewBox="0 0 12 16" id="i-collapse-arrows" xmlns="http://www.w3.org/2000/svg"><path d="M8.835 9.997h2.829l-5.657 5.657L.35 9.997h2.828l2.829 2.828 2.828-2.828zm0-4L6.007 3.168 3.178 5.997H.35L6.007.34l5.657 5.657H8.835z" fill="#0064D6"/></symbol><symbol viewBox="0 0 12 12" id="i-column" xmlns="http://www.w3.org/2000/svg"><path d="M1 1h4v2H1zm0 3h4v7H1z" fill-rule="evenodd"/></symbol><symbol viewBox="0 0 12 12" id="i-columns" xmlns="http://www.w3.org/2000/svg"><path d="M1 1h4v2H1zm6 0h4v2H7zM1 5h4v2H1zm6 0h4v2H7zM1 9h4v2H1zm6 0h4v2H7z" fill-rule="evenodd"/></symbol><symbol viewBox="0 0 12 12" id="i-contracted" xmlns="http://www.w3.org/2000/svg"><g fill="none" fill-rule="evenodd"><rect stroke-opacity=".5" stroke="#000" x="1.5" y="1.5" width="9" height="9" rx="1"/><path fill="#000" d="M9 5v2H3V5z"/></g></symbol><symbol viewBox="0 0 12 12" id="i-copy" xmlns="http://www.w3.org/2000/svg"><g stroke="#000" fill="none" fill-rule="evenodd"><path d="M4.5 4.5h5v5h-5z"/><path d="M7.5 2.5h-5v5h2v2h5v-5h-2v-2z"/></g></symbol><symbol viewBox="0 0 12 12" id="i-cross" xmlns="http://www.w3.org/2000/svg"><path d="M2 10l8-8m0 8L2 2" stroke="#000" stroke-width="2" fill="none"/></symbol><symbol viewBox="0 0 12 12" id="i-cut" xmlns="http://www.w3.org/2000/svg"><g stroke="#000" fill="none" fill-rule="evenodd"><path d="M3 3.12c.667.078 3 1.745 7 5-.326.204-.659.204-1 0-.341-.206-1.674-1.206-4-3 0 .666-.667.666-2 0-2-1-1-2.12 0-2z"/><path d="M3 8.264c.667-.08 3-1.746 7-5-.326-.205-.659-.205-1 0-.341.204-1.674 1.204-4 3 0-.667-.667-.667-2 0-2 1-1 2.119 0 2z"/></g></symbol><symbol viewBox="0 0 25 24" id="i-dashboard-gear" xmlns="http://www.w3.org/2000/svg"><path d="M12.54 16.755a4.807 4.807 0 1 1 0-9.614 4.807 4.807 0 0 1 0 9.614zm11.648-3.143v-3.513l-2.68-.832-.832-2.034 1.201-2.403-2.403-2.404-2.404 1.202-2.034-.832L14.112.3h-3.42L9.86 2.98l-2.034.833-2.404-1.294L3.02 5.015l1.2 2.403-.832 2.034-2.588.832v3.513l2.68.832.833 2.034-1.202 2.403 2.496 2.404 2.404-1.202 2.033.832.832 2.588h3.42l.833-2.68 2.034-.832 2.403 1.201 2.404-2.403-1.294-2.496.832-2.034 2.68-.832z"/></symbol><symbol viewBox="0 0 25 24" id="i-dashboard-pdf" xmlns="http://www.w3.org/2000/svg"><path d="M20.886 6.535h-3.869a.475.475 0 0 1-.475-.475V1.938H4.188v20.051h16.698V6.535zM3.594.75h13.458a.59.59 0 0 1 .421.176l4.428 4.46c.11.112.173.262.173.419v16.778a.594.594 0 0 1-.594.594H3.594A.594.594 0 0 1 3 22.583V1.343c0-.327.266-.593.594-.593zm8.7 8.295c-.02.46-.03.865-.06 1.27a.477.477 0 0 0 .127.381c.673.78 1.473 1.418 2.258 2.075.146.122.282.079.426.046a8.195 8.195 0 0 1 2.352-.217c.44.028.866.118 1.208.428.408.37.492.91.237 1.479-.2.445-.643.69-1.17.643-.92-.081-1.716-.495-2.43-1.034-.461-.35-.868-.427-1.413-.23-.772.278-1.549.54-2.305.861-.181.078-.253.208-.31.38-.282.848-.616 1.673-1.13 2.413-.175.252-.38.475-.633.65-.434.297-.893.328-1.248.084-.503-.346-.711-.831-.58-1.358.075-.3.223-.559.433-.79.651-.72 1.459-1.22 2.316-1.644a.72.72 0 0 0 .42-.511c.244-.962.475-1.926.594-2.914a.568.568 0 0 0-.147-.493c-.662-.76-1.258-1.567-1.613-2.52-.17-.454-.244-.926.023-1.38.367-.623 1.534-.854 2.073-.074.355.514.461 1.095.523 1.692.029.272.036.546.049.763zm3.428 4.453c.579.418 1.169.783 1.879.893.326.05.54-.062.617-.339.078-.277-.038-.504-.366-.594-.707-.192-1.417-.12-2.13.04zm-5.431 1.915c-.502.222-.936.531-1.35.868a1.93 1.93 0 0 0-.492.574c-.167.31-.149.54.057.715.263.224.48.082.665-.104.566-.575.83-1.318 1.12-2.053zm1.195-5.741c.082-.857.038-1.622-.214-2.369a1.021 1.021 0 0 0-.11-.215c-.145-.23-.351-.276-.605-.204-.25.07-.33.236-.32.477.006.165.044.318.105.47.262.652.643 1.231 1.144 1.84zm.167 3.981c-.028.14.02.206.16.152.604-.232 1.213-.45 1.833-.633.144-.043.152-.118.04-.21-.499-.41-.978-.844-1.44-1.297-.096-.095-.167-.096-.196.063-.12.645-.22 1.294-.397 1.925z"/></symbol><symbol viewBox="0 0 25 24" id="i-dashboard-phone" xmlns="http://www.w3.org/2000/svg"><path d="M12.52 23.54C6.158 23.54 1 18.382 1 12.02 1 5.658 6.158.5 12.52.5c6.362 0 11.52 5.158 11.52 11.52a11.52 11.52 0 0 1-11.52 11.52zm-.184-15.114a4.147 4.147 0 0 0-1.198-2.765 1.475 1.475 0 0 0-.922-.553 2.396 2.396 0 0 0-2.765 2.673c.1.696.285 1.377.553 2.027a16.681 16.681 0 0 0 1.936 3.779 21.289 21.289 0 0 0 2.856 3.041 8.49 8.49 0 0 0 1.844 1.29c.384.248.833.377 1.29.369a3.318 3.318 0 0 0 2.12-1.014c.5-.412.581-1.147.184-1.659a4.977 4.977 0 0 0-1.935-1.843 2.212 2.212 0 0 0-2.12-.184c-.45.185-.961.151-1.383-.092a3.502 3.502 0 0 1-1.75-2.673.922.922 0 0 1 .552-1.014c.509-.263.802-.813.738-1.382z"/></symbol><symbol viewBox="0 0 25 24" id="i-dashboard-portal" xmlns="http://www.w3.org/2000/svg"><path d="M11.346 18.844a6.935 6.935 0 0 1 6.798-9.481V6.13H1.356v12.714h9.99zm7.953-9.326A6.935 6.935 0 1 1 11.935 20H.779a.578.578 0 0 1-.578-.578V1.478A.576.576 0 0 1 .778.9h17.944c.319 0 .577.259.577.578v8.04zM3.001 4.268A.925.925 0 1 0 3 2.42a.925.925 0 0 0 0 1.85zm3.583 0a.925.925 0 1 0 0-1.849.925.925 0 0 0 0 1.85zm3.583 0a.925.925 0 1 0 0-1.849.925.925 0 0 0 0 1.85zm7.628 9.818a.734.734 0 1 0 0-1.469.734.734 0 0 0 0 1.469zm0 .979a.735.735 0 0 0-.735.734v3.097a.734.734 0 0 0 1.469 0v-3.179a.734.734 0 0 0-.734-.652z"/></symbol><symbol viewBox="0 0 10 10" id="i-delete" xmlns="http://www.w3.org/2000/svg"><path d="M9.5 8.338L6.033 5l3.393-3.338L8.246.5 4.853 3.766 1.754.718.574 1.95 3.672 5 .5 8.049l1.18 1.233 3.173-3.121L8.319 9.5z" fill-rule="evenodd"/></symbol><symbol viewBox="0 0 35 35" id="i-delete-field" xmlns="http://www.w3.org/2000/svg"><g fill="none"><path d="M27.817 21.333h-20.3V26.7h20.3v-5.367zm-20.3-7.7h20.3V8.267h-20.3v5.366zM6.933 7.1H28.4c.322 0 .583.261.583.583v19.6a.584.584 0 0 1-.583.584H6.933a.583.583 0 0 1-.583-.584v-19.6c0-.322.261-.583.583-.583z" fill="#002C5F"/><path d="M27 6.75a7.074 7.074 0 0 0-7 7 7.074 7.074 0 0 0 7 7 7.074 7.074 0 0 0 7-7 7.074 7.074 0 0 0-7-7" fill="#D0021B"/><path fill="#FFF" d="M29.912 15.924l-1.94-1.942 1.94-1.94-.738-.738-1.942 1.94-1.94-1.941-.738.74 1.94 1.94-1.941 1.94.74.74 1.94-1.941 1.94 1.94.74-.738"/></g></symbol><symbol viewBox="0 0 12 12" id="i-desc" xmlns="http://www.w3.org/2000/svg"><defs><path id="bua" d="M5 2h2v9H5z"/><path d="M8.993 6.1V4.393h-6v6H4.7V6.1h4.293z" id="bub"/></defs><g fill="none" fill-rule="evenodd"><use fill="#D8D8D8" xlink:href="#bua"/><path stroke="#000" d="M5.5 2.5h1v8h-1z"/><g transform="rotate(-135 5.993 7.393)"><use fill="#D8D8D8" xlink:href="#bub"/><path stroke="#000" d="M8.493 5.6v-.707h-5v5H4.2V5.6h4.293z"/></g></g></symbol><symbol viewBox="0 0 11 16" id="i-dollar" xmlns="http://www.w3.org/2000/svg"><path d="M4.4 1.4v1.4c-.6 0-3.3.7-3.3 3s2 2.6 3.3 2.9v2.4c-1-.2-1.1-1-1.3-1.6H1a4.1 4.1 0 0 0 3.4 3.6v1.4h2v-1.4C8.1 13 10 11.7 10 9.8S8.1 7.1 6.5 7V4.8a1.2 1.2 0 0 1 1.1 1.3h2.2a3.5 3.5 0 0 0-3.4-3.3V1.4zm0 3.4v1.8C3 6.6 3 5.1 4.4 4.8zM6.5 9c1.8.1 2 1.7 0 2V9z" fill="#636569" stroke="#e1e1e1" stroke-width=".75"/></symbol><symbol viewBox="0 0 22 22" id="i-enterprise" xmlns="http://www.w3.org/2000/svg"><path d="M14.556 7.922H19v12.445H3V1.7h11.556v6.222H19v12.445h-4.444v-1.778h2.666V9.7h-2.666v8.889h2.666V9.7h-2.666V7.922zM4.778 3.478v15.11h8V3.479h-8zm2.222 4A.889.889 0 1 1 7 5.7h3.556a.889.889 0 0 1 0 1.778H7zm0 4A.889.889 0 1 1 7 9.7h3.556a.889.889 0 0 1 0 1.778H7zm0 4A.889.889 0 1 1 7 13.7h3.556a.889.889 0 0 1 0 1.778H7z"/></symbol><symbol viewBox="0 0 17 17" id="i-exclamation" xmlns="http://www.w3.org/2000/svg"><path d="M8.5 17A8.59 8.59 0 0 0 17 8.5 8.59 8.59 0 0 0 8.5 0 8.59 8.59 0 0 0 0 8.5 8.59 8.59 0 0 0 8.5 17m0-15.658a7.158 7.158 0 1 1 0 14.316 7.158 7.158 0 0 1 0-14.316m0 2.953a.805.805 0 0 0-.804.805v4.563a.805.805 0 1 0 1.61 0V5.011a.805.805 0 0 0-.806-.716m0 8.41a.805.805 0 1 0 0-1.61.805.805 0 0 0 0 1.61" fill="#131313"/></symbol><symbol viewBox="0 0 17 17" id="i-exclamation-no-fill" xmlns="http://www.w3.org/2000/svg"><path d="M8.5 17A8.59 8.59 0 0 0 17 8.5 8.59 8.59 0 0 0 8.5 0 8.59 8.59 0 0 0 0 8.5 8.59 8.59 0 0 0 8.5 17m0-15.658a7.158 7.158 0 1 1 0 14.316 7.158 7.158 0 0 1 0-14.316m0 2.953a.805.805 0 0 0-.804.805v4.563a.805.805 0 1 0 1.61 0V5.011a.805.805 0 0 0-.806-.716m0 8.41a.805.805 0 1 0 0-1.61.805.805 0 0 0 0 1.61"/></symbol><symbol viewBox="0 0 17 17" id="i-exclamation-red" xmlns="http://www.w3.org/2000/svg"><path d="M8.5 17A8.59 8.59 0 0 0 17 8.5 8.59 8.59 0 0 0 8.5 0 8.59 8.59 0 0 0 0 8.5 8.59 8.59 0 0 0 8.5 17m0-15.658a7.158 7.158 0 1 1 0 14.316 7.158 7.158 0 0 1 0-14.316m0 2.953a.805.805 0 0 0-.804.805v4.563a.805.805 0 1 0 1.61 0V5.011a.805.805 0 0 0-.806-.716m0 8.41a.805.805 0 1 0 0-1.61.805.805 0 0 0 0 1.61" fill="#C9282D"/></symbol><symbol viewBox="0 0 18 18" id="i-exclamation-red-solid-fill" xmlns="http://www.w3.org/2000/svg"><g fill="none"><path d="M9 0a9.095 9.095 0 0 0-9 9 9.095 9.095 0 0 0 9 9 9.095 9.095 0 0 0 9-9 9.095 9.095 0 0 0-9-9z" fill="#C9282D"/><path d="M9.225 4.457c-.563 0-1.125.354-1.125.708V9.32c0 .354.422.708 1.125.708.563 0 1.125-.354 1.125-.708V5.165c0-.443-.563-.708-1.125-.708zm0 8.914c.563 0 1.125-.417 1.125-1.114 0-.557-.422-1.114-1.125-1.114-.563 0-1.125.418-1.125 1.114 0 .697.563 1.114 1.125 1.114z" fill="#FFF"/></g></symbol><symbol viewBox="0 0 12 12" id="i-expanded" xmlns="http://www.w3.org/2000/svg"><g fill="none" fill-rule="evenodd"><rect stroke-opacity=".5" stroke="#000" x="1.5" y="1.5" width="9" height="9" rx="1"/><path fill="#000" d="M5 3h2v6H5z"/><path fill="#000" d="M9 5v2H3V5z"/></g></symbol><symbol viewBox="0 0 13 13" id="i-external-link" xmlns="http://www.w3.org/2000/svg"><defs><path d="M9.594 11.731V7.5a.625.625 0 1 1 1.25 0v4.856c0 .346-.28.625-.625.625H1.045a.625.625 0 0 1-.625-.625V3.182c0-.345.28-.625.625-.625h4.306a.625.625 0 0 1 0 1.25H1.67v7.924h7.923zm1.92-9.197L6.092 7.942a.625.625 0 0 1-.883-.884l5.378-5.365H8.002a.625.625 0 1 1 0-1.25h4.137c.345 0 .625.28.625.625v4.137a.625.625 0 0 1-1.25 0v-2.67z" id="cca"/></defs><use fill="#0064D6" xlink:href="#cca" transform="translate(-.15)"/></symbol><symbol viewBox="0 0 12 12" id="i-eye" xmlns="http://www.w3.org/2000/svg"><g fill="none" fill-rule="evenodd"><path d="M3.001 3.908L3 4a3 3 0 1 0 5.999-.092A5.248 5.248 0 0 0 6 3c-1.1 0-2.1.303-2.999.908z" fill="#000"/><path d="M4 4.5c.667-.333 1.667-.5 3-.5" stroke="#979797"/><path d="M1 6c1.333-2 3-3 5-3s3.667 1 5 3C9.667 8 8 9 6 9S2.333 8 1 6z" stroke="#000"/></g></symbol><symbol viewBox="0 0 12 12" id="i-eye-slash" xmlns="http://www.w3.org/2000/svg"><g fill="none" fill-rule="evenodd"><path d="M3.001 3.908L3 4a3 3 0 1 0 5.999-.092A5.248 5.248 0 0 0 6 3c-1.1 0-2.1.303-2.999.908z" fill="#000"/><path d="M4 4.5c.667-.333 1.667-.5 3-.5" stroke="#979797"/><path d="M1 6c1.333-2 3-3 5-3s3.667 1 5 3C9.667 8 8 9 6 9S2.333 8 1 6z" stroke="#000"/><path d="M4.004 2.835l4.992 6.33" stroke="#000" stroke-linecap="square"/><path d="M3.004 2.835l4.992 6.33" stroke="#FFF" stroke-linecap="square"/></g></symbol><symbol viewBox="0 0 42 42" id="i-facebook" xmlns="http://www.w3.org/2000/svg"><path d="M22.3 29.4v-7.7h2.5l.4-3h-2.9v-1.9a1.2 1.2 0 0 1 1.4-1.5h1.5v-2.6H23c-2.2 0-3.7 1.4-3.7 3.9v2.2h-2.5v3h2.5v7.7h3z"/></symbol><symbol viewBox="0 0 12 12" id="i-filter" xmlns="http://www.w3.org/2000/svg"><path d="M1 2h10L7 6v5L5 9V6L1 2zm4 4v1h2V6H5z" fill-rule="evenodd"/></symbol><symbol viewBox="0 0 17 14" id="i-folder" xmlns="http://www.w3.org/2000/svg"><path d="M0 4.887V1.404C0 .766.525.25 1.174.25H7.62l1.172 2.318h7.031c.65 0 1.176.518 1.176 1.156v1.163H0zm0 1.429v6.38c0 .637.527 1.154 1.169 1.154H15.83c.646 0 1.169-.518 1.169-1.156V6.316H0z"/></symbol><symbol viewBox="0 0 20 15.3" id="i-folder-open" xmlns="http://www.w3.org/2000/svg"><path d="M16.8 15.3H3.7a1.1 1.1 0 0 1-1-1.4L5 4.6a1 1 0 0 1 1-.8h13a1.1 1.1 0 0 1 1 1.4l-2.2 9.3a1 1 0 0 1-1 .8zM4.2 4.4a1.8 1.8 0 0 1 1.7-1.5h9.6v-.3a1 1 0 0 0-1-.9H7.7a1 1 0 0 1-1-.9 1 1 0 0 0-1-.9H1a1.1 1.1 0 0 0-1 1.6v.3l2.4 10.3z"/></symbol><symbol viewBox="0 0 16 16" id="i-globe" xmlns="http://www.w3.org/2000/svg"><path d="M8 .5A7.6 7.6 0 0 0 .5 8 7.6 7.6 0 0 0 8 15.5h1.5a1.2 1.2 0 0 1 0-1.2c.2-.4.9-1.6.2-1.9s-.5-.5-.9-1a1.2 1.2 0 0 1-.3-.6 1.6 1.6 0 0 1 .4-1v-.4l-.3-.3h-.2l-.7-.3-.2-.3h-.4l-1.4-.7a.7.7 0 0 1-.5-.7 1.5 1.5 0 0 0-.5-.7c-.1-.2-.1-.5-.2-.4s.3.8.2.9a1.4 1.4 0 0 1-.3-.5 3 3 0 0 0-.3-1c-.5-.9.1-1.4.2-1.9s.4.2.2-.1a5.3 5.3 0 0 1-.1-1.2 1.7 1.7 0 0 0-1 .3 4.6 4.6 0 0 1 1.2-1 .9.9 0 0 1 1.2.1c.4.2.4.1.3 0s.1-.2.4-.1a1.9 1.9 0 0 0 .9.4c.5 0 .1 0 .2.1s-.1.1-.4.3 0 .2.6.6.4-.3.3-.6.4-.1.4-.1a1.3 1.3 0 0 0 .5.1l1 .7c-.9.6-.3.6-.2.7s-.3.3-.3.3-.2 0-.3.1a.1.1 0 0 0 0 .2.7.7 0 0 0-.5.9l-.5.6c-.1.2.3.7.1.7a1.3 1.3 0 0 0-1.4-.4.8.8 0 0 0-.6 1.2c.4.8 1-.2 1.2-.1a1.2 1.2 0 0 1 0 .6.5.5 0 0 1 .5.6c0 .6.8.6 1 .6a5.6 5.6 0 0 0 .8-.5 1.1 1.1 0 0 1 1.1.1 5.8 5.8 0 0 0 1.3.5c.2.1.1.5.3.6a3.9 3.9 0 0 1 1.4.3c.3.3-.9 2.2-1.3 2.5s-.5.7-.9 1l-1.4 1a4.4 4.4 0 0 0-.7.9 7.4 7.4 0 0 0 5.9-7.3A7.6 7.6 0 0 0 8 .5zm1.8 7a.8.8 0 0 1-.8-.1 1.5 1.5 0 0 0-1-.2.2.2 0 0 1 .2-.2 4 4 0 0 1 1.2.4h.4c.2.1.1.1 0 .1zM7.3 1.2c-.1 0 0-.1.1-.2V.8c.2 0 .7-.1.6.2a.5.5 0 0 1-.7.2zm1.3 1h-.5c.3-.4-.1-.5-.4-.6s-.4-.1-.2-.1a1.3 1.3 0 0 1 .7.1 2.1 2.1 0 0 1 .6.4c0 .2 0 .2-.2.2zm1.6-.1a2.4 2.4 0 0 1-1-.5 1.9 1.9 0 0 0-1.1-.4C8 1.1 8 1 8.2.8a1.4 1.4 0 0 1 1.1.1.9.9 0 0 1 .7.6c0 .3.4.5.2.6z"/></symbol><symbol viewBox="0 0 12 12" id="i-grip" xmlns="http://www.w3.org/2000/svg"><g fill-rule="evenodd"><path d="M2 1h2v2H2zm3 0h2v2H5zm3 0h2v2H8z"/><path d="M8 1h2v2H8zM2 4h2v2H2zm3 0h2v2H5zm3 0h2v2H8zM2 7h2v2H2zm3 0h2v2H5zm3 0h2v2H8zm-6 3h2v2H2zm3 0h2v2H5zm3 0h2v2H8z"/></g></symbol><symbol viewBox="0 0 12 12" id="i-group" xmlns="http://www.w3.org/2000/svg"><g fill="none" fill-rule="evenodd"><path stroke="#000" d="M7.5 1.5h3v2h-3zm0 4h3v2h-3zm0 4h3v2h-3z"/><path fill="#000" d="M2 3h1v8H2zm1 3h4v1H3zm2-4h3v1H5z"/><path fill="#000" d="M2 10h5v1H2z"/><path stroke="#000" d="M1.5 1.5h3v2h-3z"/></g></symbol><symbol viewBox="0 0 17 15" id="i-has-children" xmlns="http://www.w3.org/2000/svg"><path d="M15.162 7.195h.006v2.866h1.11c.268 0 .486.217.486.486v3.548a.486.486 0 0 1-.486.486H12.73a.486.486 0 0 1-.486-.486v-3.548c0-.269.218-.486.486-.486h1.272V7.917H9.165v2.144h1.109c.268 0 .486.217.486.486v3.548a.486.486 0 0 1-.486.486H6.726a.486.486 0 0 1-.486-.486v-3.548c0-.269.218-.486.486-.486h1.272V7.917H3.16v2.144h1.11c.268 0 .486.217.486.486v3.548a.486.486 0 0 1-.486.486H.722a.486.486 0 0 1-.486-.486v-3.548c0-.269.218-.486.486-.486h1.272V7.917H1.99V6.75h6.008V4.756H6.726a.486.486 0 0 1-.486-.486V.722c0-.268.218-.486.486-.486h3.548c.268 0 .486.218.486.486V4.27a.486.486 0 0 1-.486.486h-1.11V6.75h5.998v.445z" fill="#002C5F"/></symbol><symbol viewBox="0 0 17 19" id="i-help" xmlns="http://www.w3.org/2000/svg"><path d="M.008 10.195v-7.87C-.082 1.252.634.358 1.618.09 1.885 0 2.064 0 2.332 0h12.342C15.927 0 17 .984 17 2.236v10.732c0 1.252-.894 2.236-2.146 2.325H6.178c-.268 0-.536.09-.804.269-1.52 1.073-3.041 2.056-4.562 3.13-.178.09-.357.268-.536.09a.966.966 0 0 1-.268-.627v-7.96zm8.227-.804h.627c.178 0 .357-.09.357-.269v-.09c.09-.446.358-.804.716-.983.179-.09.357-.179.447-.358.715-.536 1.073-1.52.894-2.414a1.994 1.994 0 0 0-1.61-1.79c-.894-.267-1.788-.267-2.683.09-.626.358-1.162.984-1.252 1.789-.09.358 0 .447.358.447h.984c.268 0 .536-.179.536-.358.18-.447.626-.626 1.074-.536.447.09.805.447.805.894.089.626-.269 1.163-.716 1.52-.358.18-.715.358-.984.627a1.65 1.65 0 0 0-.447 1.073c0 .179.09.358.268.358h.626zm0 2.414c.984 0 .984 0 .895-.983v-.09c0-.268-.18-.447-.358-.447H7.7c-.179 0-.447.09-.447.358v.09c0 1.162.179 1.072.983 1.072z"/></symbol><symbol viewBox="0 0 22 18" id="i-hide" xmlns="http://www.w3.org/2000/svg"><path d="M6 9a5 5 0 0 1 5-5l2.3-2.3-2.3-.2A11.8 11.8 0 0 0 0 9a12 12 0 0 0 2.3 3.7zm11.8-5.4L20 1.4 18.6 0 2 16.6 3.4 18 6 15.4a11.7 11.7 0 0 0 5 1.1A11.8 11.8 0 0 0 22 9a11.8 11.8 0 0 0-4.2-5.4zM11 14a5 5 0 0 1-2.7-.8l1.5-1.5a3 3 0 0 0 4-4l1.5-1.5A5 5 0 0 1 11 14z"/></symbol><symbol viewBox="0 0 17 16" id="i-home" xmlns="http://www.w3.org/2000/svg"><path d="M13.345.3h1.36l-.085 4.76L17 7.015l-.85 1.105-7.565-6.035-7.565 5.95L0 7.1 8.585.3l4.675 3.655L13.345.3zM2.635 7.95l5.95-4.76 5.95 4.76v7.65H10.03v-4.42H7.14v4.42H2.635V7.95z"/></symbol><symbol viewBox="0 0 12 12" id="i-indeterminate" xmlns="http://www.w3.org/2000/svg"><g fill="none" fill-rule="evenodd"><path d="M3.056 4.581a3.001 3.001 0 0 0 5.888 0C8.059 4.194 7.078 4 6 4c-1.078 0-2.06.194-2.944.581z" fill="#0064d6"/><path d="M4 5.5c.667-.333 1.667-.5 3-.5M1 6c1.333-1.333 3-2 5-2s3.667.667 5 2C9.667 7.333 8 8 6 8s-3.667-.667-5-2z" stroke="#0064d6"/></g></symbol><symbol viewBox="0 0 17 17" id="i-information" xmlns="http://www.w3.org/2000/svg"><path d="M8.5 12.705a.805.805 0 0 1-.805-.716V7.337a.805.805 0 1 1 1.61 0V11.9a.805.805 0 0 1-.805.805zm0-8.41a.805.805 0 1 1 0 1.61.805.805 0 0 1 0-1.61zM8.5 0A8.59 8.59 0 0 1 17 8.5 8.59 8.59 0 0 1 8.5 17 8.59 8.59 0 0 1 0 8.5 8.59 8.59 0 0 1 8.5 0zm0 15.658a7.158 7.158 0 1 0 0-14.316 7.158 7.158 0 0 0 0 14.316z"/></symbol><symbol viewBox="0 0 17 17" id="i-inherited-property" xmlns="http://www.w3.org/2000/svg"><path d="M5.026 8.46v4.457h5.803v-1.556c0-.294.238-.532.532-.532h4.175c.293 0 .531.238.531.532v4.175a.531.531 0 0 1-.531.531h-4.175a.531.531 0 0 1-.532-.531V13.98H3.964V8.46H1.063a.531.531 0 0 1-.532-.532V1.063C.531.768.77.53 1.062.53h6.866c.293 0 .531.238.531.531v6.866a.531.531 0 0 1-.531.531H5.026z" fill="#002C5F"/></symbol><symbol viewBox="0 0 13 14" id="i-jump-top" xmlns="http://www.w3.org/2000/svg"><title>Shape</title><path fill="#0064d6" d="M3.2 6.2h2.4V14h1.6V6.2h2.4L6.5 3.1 3.2 6.2zM0 0v1.6h13V0H0z"/></symbol><symbol viewBox="0 0 12 12" id="i-left" xmlns="http://www.w3.org/2000/svg"><defs><path id="cua" d="M5.5 1.5h2v9h-2z"/><path d="M7.993 4.7V2.993h-6v6H3.7V4.7h4.293z" id="cub"/></defs><g fill="none" fill-rule="evenodd"><g transform="rotate(90 6.5 6)"><use fill="#D8D8D8" xlink:href="#cua"/><path stroke="#000" d="M6 2h1v8H6z"/></g><g transform="rotate(-45 4.993 5.993)"><use fill="#D8D8D8" xlink:href="#cub"/><path stroke="#000" d="M7.493 4.2v-.707h-5v5H3.2V4.2h4.293z"/></g></g></symbol><symbol viewBox="0 0 42 42" id="i-linkedin" xmlns="http://www.w3.org/2000/svg"><path d="M18.7 17.9H22v1.5a3.7 3.7 0 0 1 3.3-1.8c3.5 0 4.2 2.3 4.2 5.3V29h-3.4v-5.4c0-1.3 0-2.9-1.8-2.9s-2.1 1.4-2.1 2.9V29h-3.5V17.9zm-4.2-5.3a2 2 0 1 1-2 2 2 2 0 0 1 2-2zm-1.7 16.6h3.5V18.1h-3.5v11.1z" data-name="linkedin"/></symbol><symbol viewBox="0 0 12 12" id="i-loading" xmlns="http://www.w3.org/2000/svg"><defs><path id="cwa" d="M5 1h2v3H5z"/><path id="cwb" d="M5 8h2v3H5z"/><path id="cwc" d="M1 5h3v2H1z"/><path id="cwd" d="M8 5h3v2H8z"/><path id="cwe" d="M4 0h2v3H4z"/><path id="cwf" d="M4 7h2v3H4z"/><path id="cwg" d="M0 4h3v2H0z"/><path id="cwh" d="M7 4h3v2H7z"/></defs><g fill="none" fill-rule="evenodd"><use fill="#D8D8D8" xlink:href="#cwa"/><path stroke="#979797" d="M5.5 1.5h1v2h-1z"/><use fill="#D8D8D8" xlink:href="#cwb"/><path stroke="#979797" d="M5.5 8.5h1v2h-1z"/><use fill="#D8D8D8" xlink:href="#cwc"/><path stroke="#979797" d="M1.5 5.5h2v1h-2z"/><use fill="#D8D8D8" xlink:href="#cwd"/><path stroke="#979797" d="M8.5 5.5h2v1h-2z"/><g opacity=".714" transform="rotate(45 4.293 6.707)"><use fill="#D8D8D8" xlink:href="#cwe"/><path stroke="#979797" d="M4.5.5h1v2h-1z"/><use fill="#D8D8D8" xlink:href="#cwf"/><path stroke="#979797" d="M4.5 7.5h1v2h-1z"/><g><use fill="#D8D8D8" xlink:href="#cwg"/><path stroke="#979797" d="M.5 4.5h2v1h-2z"/></g><g><use fill="#D8D8D8" xlink:href="#cwh"/><path stroke="#979797" d="M7.5 4.5h2v1h-2z"/></g></g></g></symbol><symbol viewBox="0 0 20 18" id="i-logout" xmlns="http://www.w3.org/2000/svg"><path d="M8.387 1.604H1.604v14.87h6.783V12.56c0-.174 0-.435.087-.522a.94.94 0 0 1 .609-.26c.26 0 .434.26.521.521v4.609c0 .521-.26.782-.782.782h-7.74c-.521 0-.782-.26-.782-.782V1.083C.3.56.56.3 1.083.3h7.739c.608 0 .782.174.782.783v4.434c0 .261-.087.522-.434.696a.458.458 0 0 1-.61-.174c-.086-.174-.173-.348-.173-.609V1.604z"/><path d="M17.257 9.691H6.56c-.522 0-.783-.26-.783-.695 0-.348.348-.609.783-.609h10.435c-.261-.26-.522-.609-.783-.87-.609-.695-1.304-1.304-2-2-.348-.347-.348-.695-.087-.956s.609-.261.957.087c1.39 1.304 2.695 2.522 4.087 3.826.434.435.434.783 0 1.13a85.024 85.024 0 0 1-4.087 3.826c-.348.348-.696.348-.957.087-.26-.26-.26-.695.087-1.043.87-.87 1.826-1.74 2.696-2.609.087 0 .174-.087.348-.174z"/></symbol><symbol viewBox="0 0 17 13" id="i-mail" xmlns="http://www.w3.org/2000/svg"><path d="M1.445 1.205l6.12 4.845c.284.24.649.362 1.02.34.371.022.736-.1 1.02-.34l6.12-4.845c.51-.425.34-.68-.255-.68H1.7c-.595.085-.68.255-.255.68z"/><path d="M16.15 2.48l-6.63 5.1a2.975 2.975 0 0 1-.935.255 2.975 2.975 0 0 1-.935-.255l-6.63-5.1c-.51-.34-.935-.085-.935.425v8.415a1.19 1.19 0 0 0 1.105 1.105h14.62a1.105 1.105 0 0 0 1.105-1.105V2.905c.085-.51-.255-.85-.765-.425z"/></symbol><symbol viewBox="0 0 11 11" id="i-menu" xmlns="http://www.w3.org/2000/svg"><path d="M1 1h9v1.8H1V1zm0 3.6h9v1.8H1V4.6zm0 3.6h9V10H1V8.2z" fill-rule="evenodd"/></symbol><symbol viewBox="0 0 25 25" id="i-menu-arrow" xmlns="http://www.w3.org/2000/svg"><path d="M6.9 12.4l5-5.2v4.4h6.2v1.8h-6.2v4.4l-5-5.4z"/></symbol><symbol viewBox="0 0 20 6" id="i-menu-kabob" xmlns="http://www.w3.org/2000/svg"><title>kebob-menu</title><circle cx="2.5" cy="3" r="2.5"/><circle data-name="Oval-2" cx="10" cy="3" r="2.5"/><circle data-name="Oval-2" cx="17.5" cy="3" r="2.5"/></symbol><symbol viewBox="0 0 46 36" id="i-minus" xmlns="http://www.w3.org/2000/svg"><path d="M23.846 17.156h-5.922v1.692h10.151v-1.692z"/></symbol><symbol viewBox="0 0 35 35" id="i-move-field-down" xmlns="http://www.w3.org/2000/svg"><g fill="none"><path d="M7.517 13.633h20.3V8.267h-20.3v5.366zm0 7.7V26.7h20.3v-5.367h-20.3zM6.933 7.1H28.4c.322 0 .583.261.583.583v19.6a.584.584 0 0 1-.583.584H6.933a.583.583 0 0 1-.583-.584v-19.6c0-.322.261-.583.583-.583z" fill="#002C5F"/><path d="M27 6.75a7.074 7.074 0 0 0-7 7 7.074 7.074 0 0 0 7 7 7.074 7.074 0 0 0 7-7 7.074 7.074 0 0 0-7-7" fill="#A3B536"/><path fill="#FFF" d="M27.064 17.532l-3.797-3.54h3.089V9.55h1.288v4.442h3.09l-3.67 3.54z"/></g></symbol><symbol viewBox="0 0 35 35" id="i-move-field-up" xmlns="http://www.w3.org/2000/svg"><g fill="none"><path d="M7.517 13.633h20.3V8.267h-20.3v5.366zm0 7.7V26.7h20.3v-5.367h-20.3zM6.933 7.1H28.4c.322 0 .583.261.583.583v19.6a.584.584 0 0 1-.583.584H6.933a.583.583 0 0 1-.583-.584v-19.6c0-.322.261-.583.583-.583z" fill="#002C5F"/><path d="M27 6.75a7.074 7.074 0 0 0-7 7 7.074 7.074 0 0 0 7 7 7.074 7.074 0 0 0 7-7 7.074 7.074 0 0 0-7-7" fill="#A3B536"/><path fill="#FFF" d="M27.064 9.55l-3.797 3.54h3.089v4.442h1.288V13.09h3.09z"/></g></symbol><symbol viewBox="0 0 17 17" id="i-nav-temp" xmlns="http://www.w3.org/2000/svg"><path d="M8.5 0a8.5 8.5 0 1 1 0 17 8.5 8.5 0 0 1 0-17zm0 16.15a7.65 7.65 0 1 0 0-15.3 7.65 7.65 0 0 0 0 15.3zM4.307 5.185V6.38H3.012V5.185h1.295zm0 1.467v4.463H3.012V6.652h1.295zm3.23 1.685H6.353v-.514c0-.18-.014-.301-.04-.365a.15.15 0 0 0-.15-.096c-.073 0-.122.028-.146.084-.025.056-.038.182-.038.377v2.105c0 .159.019.278.056.358.038.08.093.12.165.12.085 0 .143-.042.173-.125.03-.083.045-.24.045-.471v-.531h1.12a7.565 7.565 0 0 1-.035.802c-.022.178-.091.36-.209.548-.117.187-.27.328-.459.423a1.545 1.545 0 0 1-.7.143c-.355 0-.636-.065-.844-.196a1.064 1.064 0 0 1-.44-.552c-.086-.236-.13-.572-.13-1.007V8.172c0-.379.036-.664.106-.857.071-.193.221-.365.452-.516.23-.152.51-.227.84-.227.328 0 .608.075.84.225.233.15.388.34.465.568.076.229.115.553.115.972zm3.22-.118v1.093c0 .402-.02.696-.057.883a1.281 1.281 0 0 1-.24.525 1.093 1.093 0 0 1-.471.36 1.76 1.76 0 0 1-.661.115c-.279 0-.514-.033-.707-.099a.956.956 0 0 1-.45-.3 1.22 1.22 0 0 1-.229-.483c-.045-.19-.068-.474-.068-.853V8.317c0-.415.041-.739.124-.972.083-.233.233-.42.449-.562.215-.14.491-.211.828-.211.282 0 .524.045.726.136.203.09.359.209.469.355.11.145.185.295.226.45.04.155.06.39.06.706zm-1.258-.336c0-.229-.012-.373-.034-.432-.023-.06-.072-.09-.147-.09-.074 0-.124.03-.15.09-.024.06-.037.203-.037.432v2.014c0 .211.013.348.038.412s.073.096.146.096c.075 0 .124-.029.148-.087.024-.059.036-.184.036-.377V7.883zm2.95-1.23l-.021.41a.985.985 0 0 1 .335-.369.846.846 0 0 1 .456-.122.82.82 0 0 1 .529.164c.137.11.225.249.264.416.04.167.06.445.06.835v3.128h-1.258v-3.09c0-.308-.01-.495-.028-.562-.019-.068-.07-.101-.156-.101-.089 0-.145.039-.168.116-.023.077-.034.284-.034.62v3.017H11.17V6.652h1.28z"/></symbol><symbol viewBox="0 0 7 13" id="i-next-month" xmlns="http://www.w3.org/2000/svg"><path d="M2.778 6.496L0 9.276v3.72l6.5-6.5L0 0v3.721" fill-rule="evenodd"/></symbol><symbol viewBox="0 0 7 13" id="i-next-month-blue" xmlns="http://www.w3.org/2000/svg"><path fill="#0064D6" d="M2.778 6.496L0 9.276v3.72l6.5-6.5L0 0v3.721" fill-rule="evenodd"/></symbol><symbol viewBox="0 0 13 13" id="i-next-year" xmlns="http://www.w3.org/2000/svg"><path d="M8.92 6.502l-2.778-2.78V0l6.502 6.502L6.142 13V9.278L8.92 6.5v.002zm-6.142 0L0 3.722V0l6.502 6.502L0 13V9.278l2.778-2.776z" fill-rule="evenodd"/></symbol><symbol viewBox="0 0 12 12" id="i-none" xmlns="http://www.w3.org/2000/svg"><defs><path id="dja" d="M5 3h2v6H5z"/><path d="M8.146 8.182V6.475h-5v5h1.708V8.182h3.292z" id="djb"/><path d="M8.5 2.914V1.207h-5v5h1.707V2.914H8.5z" id="djc"/></defs><g fill="none" fill-rule="evenodd"><use fill="#D8D8D8" xlink:href="#dja"/><path stroke="#000" d="M5.5 3.5h1v5h-1z"/><g transform="rotate(-135 5.646 8.475)"><use fill="#D8D8D8" xlink:href="#djb"/><path stroke="#000" d="M7.646 7.682v-.707h-4v4h.708V7.682h3.292z"/></g><g transform="rotate(45 6 3.707)"><use fill="#D8D8D8" xlink:href="#djc"/><path stroke="#000" d="M8 2.414v-.707H4v4h.707V2.414H8z"/></g></g></symbol><symbol viewBox="0 0 12 12" id="i-not-allowed" xmlns="http://www.w3.org/2000/svg"><g stroke="#000" fill="none" fill-rule="evenodd"><circle cx="6" cy="6" r="4"/><path d="M8.5 3.5L3.401 8.599" stroke-linecap="square"/></g></symbol><symbol viewBox="0 0 12 12" id="i-paste" xmlns="http://www.w3.org/2000/svg"><g stroke="#000" fill="none" fill-rule="evenodd"><path d="M2.5 2.5h7v7h-7z"/><path d="M6.5 1.5h-1v2h-1v1h3v-1h-1v-2z"/></g></symbol><symbol viewBox="0 0 12 12" id="i-pin" xmlns="http://www.w3.org/2000/svg"><g fill="none" fill-rule="evenodd"><path fill="#000" d="M3 2h6v1H8v4l2 1H7l-1 3-1-3H2l2-1V3H3z"/><path fill-opacity=".5" fill="#FFF" d="M5 3h1v4H5z"/><path fill-opacity=".28" fill="#FFF" d="M4 3h1v3H4z"/></g></symbol><symbol viewBox="0 0 12 12" id="i-pivot" xmlns="http://www.w3.org/2000/svg"><g stroke="#000" fill="none" fill-rule="evenodd"><rect x="1.5" y="1.5" width="9" height="9" rx="1"/><path d="M10.5 3.5h-9m2-2v9" stroke-linecap="square"/><path d="M7.5 6.5l1-1 1 1m-3 1l-1 1 1 1"/><path d="M8.5 5.5v3h-3"/></g></symbol><symbol viewBox="0 0 22 22" id="i-play" xmlns="http://www.w3.org/2000/svg"><path d="M11 0a11 11 0 1 0 11 11A11 11 0 0 0 11 0zM8 16.1V6.3l7.8 4.9z"/></symbol><symbol viewBox="0 0 46 36" id="i-plus" xmlns="http://www.w3.org/2000/svg"><path d="M28.077 17.156h-4.23v-4.231h-1.693v4.23h-4.23v1.693h4.23v4.23h1.692v-4.23h4.23v-1.692"/></symbol><symbol viewBox="0 0 10 10" id="i-plus-sm" xmlns="http://www.w3.org/2000/svg"><path d="M10 4.2H5.8V0H4.2v4.2H0v1.6h4.2V10h1.6V5.8H10V4.2"/></symbol><symbol viewBox="0 0 7 13" id="i-previous-month" xmlns="http://www.w3.org/2000/svg"><path d="M4.222 6.496L7 9.276v3.72l-6.5-6.5L7 0v3.721" fill-rule="evenodd"/></symbol><symbol viewBox="0 0 7 13" id="i-previous-month-blue" xmlns="http://www.w3.org/2000/svg"><path fill="#0064D6" d="M4.222 6.496L7 9.276v3.72l-6.5-6.5L7 0v3.721" fill-rule="evenodd"/></symbol><symbol viewBox="0 0 13 13" id="i-previous-year" xmlns="http://www.w3.org/2000/svg"><path d="M4.074 6.498l2.778 2.78V13L.35 6.498 6.852 0v3.722L4.074 6.498zm6.142 0l2.778 2.78V13L6.492 6.498 12.994 0v3.722l-2.778 2.776z" fill-rule="evenodd"/></symbol><symbol viewBox="0 0 35 37" id="i-remove" xmlns="http://www.w3.org/2000/svg"><g fill="none" fill-rule="evenodd"><path d="M28.375 22.625H6.625v5.75h21.75v-5.75zm-21.75-8.25h21.75v-5.75H6.625v5.75zm-.625-7h23c.345 0 .625.28.625.625v21c0 .345-.28.625-.625.625H6A.625.625 0 0 1 5.375 29V8c0-.345.28-.625.625-.625z" fill="#002C5F"/><path d="M27.5 7a7.579 7.579 0 0 0-7.5 7.5 7.579 7.579 0 0 0 7.5 7.5 7.579 7.579 0 0 0 7.5-7.5A7.579 7.579 0 0 0 27.5 7" fill="#D0021B"/><path fill="#FFF" fill-rule="nonzero" d="M30.62 16.829l-2.078-2.08 2.079-2.078-.792-.792-2.08 2.079-2.078-2.08-.792.793 2.079 2.079-2.08 2.079.793.792 2.079-2.08 2.079 2.08.792-.792"/></g></symbol><symbol viewBox="0 0 22 22" id="i-reporting" xmlns="http://www.w3.org/2000/svg"><path d="M2.815 19.609h16.366V2.38H2.815v17.229zm1.693-1.783h12.98V4.162H4.508v13.664zm9.594-10.99v4.998c0 .492.38.89.846.89.468 0 .847-.398.847-.89V6.836c0-.493-.379-.892-.847-.892-.467 0-.846.399-.846.892zm-3.95 1.478v3.52c0 .492.378.89.846.89.468 0 .847-.398.847-.89v-3.52c0-.492-.38-.891-.847-.891-.468 0-.847.399-.847.89zm-3.95 1.738v1.826c0 .493.379.891.846.891.467 0 .846-.398.846-.89v-1.827c0-.494-.38-.892-.846-.892-.467 0-.847.398-.847.892zm0 5.957h9.587v-1.79H6.2v1.79z" fill-rule="evenodd"/></symbol><symbol viewBox="0 0 12 12" id="i-right" xmlns="http://www.w3.org/2000/svg"><defs><path id="dwa" d="M4.5 1.5h2v9h-2z"/><path d="M9.993 4.7V2.993h-6v6H5.7V4.7h4.293z" id="dwb"/></defs><g fill="none" fill-rule="evenodd"><g transform="rotate(90 5.5 6)"><use fill="#D8D8D8" xlink:href="#dwa"/><path stroke="#000" d="M5 2h1v8H5z"/></g><g transform="scale(-1 1) rotate(-45 0 22.874)"><use fill="#D8D8D8" xlink:href="#dwb"/><path stroke="#000" d="M9.493 4.2v-.707h-5v5H5.2V4.2h4.293z"/></g></g></symbol><symbol viewBox="0 0 14 14" id="i-search" xmlns="http://www.w3.org/2000/svg"><path d="M13.13 12.17L9.947 8.985a.688.688 0 0 0-.775-.172A4.646 4.646 0 0 0 9 2.446a4.818 4.818 0 0 0-6.797-.086 4.732 4.732 0 0 0 0 6.626 4.732 4.732 0 0 0 6.367.258.86.86 0 0 0 .172.86l3.184 3.184h.516l.602-.602a.43.43 0 0 0 .086-.517zM8.14 8.296A3.614 3.614 0 1 1 2.995 3.22 3.614 3.614 0 0 1 8.14 8.297z"/></symbol><symbol viewBox="0 0 22 15" id="i-show" xmlns="http://www.w3.org/2000/svg"><path d="M11 0A11.8 11.8 0 0 0 0 7.5a11.8 11.8 0 0 0 22 0A11.8 11.8 0 0 0 11 0zm0 12.5a5 5 0 1 1 5-5 5 5 0 0 1-5 5zm0-8a3 3 0 1 0 3 3 3 3 0 0 0-3-3z"/></symbol><symbol viewBox="0 0 12 12" id="i-small-down" xmlns="http://www.w3.org/2000/svg"><path d="M2 5h8L6 9z" fill-rule="evenodd"/></symbol><symbol viewBox="0 0 11 5" id="i-small-down-brand-secondary" xmlns="http://www.w3.org/2000/svg"><path d="M10.5 0l-5 5-5-5z" fill="#0064D6"/></symbol><symbol viewBox="0 0 12 12" id="i-small-left" xmlns="http://www.w3.org/2000/svg"><path d="M3 6l4-4v8z" fill-rule="evenodd"/></symbol><symbol viewBox="0 0 12 12" id="i-small-minus" xmlns="http://www.w3.org/2000/svg"><path d="M2 5h8v2H2z" fill-rule="evenodd"/></symbol><symbol viewBox="0 0 12 12" id="i-small-plus" xmlns="http://www.w3.org/2000/svg"><g fill-rule="evenodd"><path d="M5 2h2v8H5z"/><path d="M2 5h8v2H2z"/></g></symbol><symbol viewBox="0 0 12 12" id="i-small-right" xmlns="http://www.w3.org/2000/svg"><path d="M5 2l4 4-4 4z" fill-rule="evenodd"/></symbol><symbol viewBox="0 0 12 12" id="i-small-up" xmlns="http://www.w3.org/2000/svg"><path d="M2 7l4-4 4 4z" fill-rule="evenodd"/></symbol><symbol viewBox="0 0 11 5" id="i-small-up-brand-secondary" xmlns="http://www.w3.org/2000/svg"><path d="M.5 5l5-5 5 5z" fill="#0064D6"/></symbol><symbol viewBox="0 0 17 17" id="i-success" xmlns="http://www.w3.org/2000/svg"><path d="M7.068 11.81a.984.984 0 0 1-.805-.357L4.116 9.305a.716.716 0 0 1 0-1.073.626.626 0 0 1 1.073 0l1.969 1.879 4.653-4.653a.626.626 0 0 1 1.073 0 .626.626 0 0 1 0 1.074l-4.92 4.92a1.074 1.074 0 0 1-.896.359zM8.5 0A8.59 8.59 0 0 1 17 8.5 8.59 8.59 0 0 1 8.5 17 8.59 8.59 0 0 1 0 8.5 8.59 8.59 0 0 1 8.5 0zm0 15.658a7.158 7.158 0 1 0 0-14.316 7.158 7.158 0 0 0 0 14.316z"/></symbol><symbol viewBox="0 0 18 18" id="i-success-green-solid-fill" xmlns="http://www.w3.org/2000/svg"><g fill="none"><path d="M9 0a9.095 9.095 0 0 0-9 9 9.095 9.095 0 0 0 9 9 9.095 9.095 0 0 0 9-9 9.095 9.095 0 0 0-9-9z" fill="#A3B536"/><path d="M7.484 12.505a1.042 1.042 0 0 1-.852-.379L4.358 9.853a.758.758 0 0 1 0-1.137.663.663 0 0 1 1.137 0l2.084 1.99 4.926-4.927a.663.663 0 0 1 1.137 0 .663.663 0 0 1 0 1.137l-5.21 5.21c-.239.27-.59.41-.948.38z" fill="#FFF"/></g></symbol><symbol viewBox="0 0 22 22" id="i-system" xmlns="http://www.w3.org/2000/svg"><path d="M19.243 10.261l-.294.22c.01.328.01.729 0 1.056.135.109.308.245.512.403l.037.03.722.552c.67.51.845 1.283.395 2.026-.263.434-.472.788-.936 1.577-.4.68-.576.98-.8 1.353-.469.78-1.158.989-1.99.63l-.807-.357-.01-.005-.603-.268a8.087 8.087 0 0 1-1.054.586 45.04 45.04 0 0 0-.122 1.222c-.052.657-.192 1.086-.65 1.482a.909.909 0 0 1-.595.221H8.892a.909.909 0 0 1-.61-.235c-.426-.386-.613-.875-.64-1.458a13.736 13.736 0 0 0-.149-1.327 7.96 7.96 0 0 1-.903-.523 66.77 66.77 0 0 0-1.46.627c-.947.421-1.571.24-2.104-.647a308.25 308.25 0 0 1-1.436-2.417l-.229-.388c-.532-.9-.358-1.621.512-2.21l.731-.494.012-.008.547-.373a20.17 20.17 0 0 1 0-1.1 71.981 71.981 0 0 0-.555-.396l-.02-.015-.758-.537c-.702-.498-.88-1.292-.43-2.04.244-.405.439-.731.873-1.467.414-.699.598-1.01.83-1.397.528-.876 1.218-1.072 2.16-.651l.772.345.027.012.546.24a8.25 8.25 0 0 1 .987-.56l.046-.437.017-.154.086-.863c.102-1.023.641-1.508 1.676-1.513 1.08-.004 2.17-.004 3.267 0 1.014.004 1.585.525 1.677 1.53.016.171.018.208.06.942l.028.468a7.85 7.85 0 0 1 1.045.587l.369-.157c.39-.166.868-.378 1.165-.516.734-.339 1.475-.106 1.886.576l.131.217.136.222c.17.28 1.292 2.095 1.479 2.41.544.923.245 1.813-.425 2.27-.254.175-.663.466-.995.71zm-1.61-4.443l-.112-.185c-1.044.477-1.86.817-2.147.821a.909.909 0 0 1-.566-.185 6.14 6.14 0 0 0-1.527-.85.909.909 0 0 1-.531-.544c-.073-.206-.085-.347-.139-1.297a67.063 67.063 0 0 0-.045-.758 372.162 372.162 0 0 0-3.026 0l-.073.744-.017.157c-.029.275-.054.5-.074.67-.057.463-.055.451-.143.623a.909.909 0 0 1-.473.43 6.109 6.109 0 0 0-1.475.837.909.909 0 0 1-.6.185c-.196-.01-.19-.007-.663-.209a56.913 56.913 0 0 1-.698-.306l-.027-.013-.699-.312c-.201.338-.387.65-.757 1.277-.247.419-.496.837-.745 1.254l.546.388.02.014c1.016.722 1.044.742 1.167.908a.909.909 0 0 1 .17.673c-.034.237-.034 1.479 0 1.715a.909.909 0 0 1-.193.705c-.153.155-.153.155-.187.175l-.085.063-.234.163-.663.452-.013.008-.614.416.145.247c.448.76.898 1.52 1.352 2.277.334-.147.734-.321 1.062-.46.23-.095.421-.174.57-.23.09-.035.164-.062.228-.083.203-.065.278-.083.481-.058a.91.91 0 0 1 .44.181 6.07 6.07 0 0 0 1.324.772.926.926 0 0 1 .36.278c.285.367.441 1.502.485 2.411h3.024l.002-.033c.068-.835.18-1.869.266-2.07a.909.909 0 0 1 .512-.49c.556-.21 1.078-.5 1.55-.86a.909.909 0 0 1 .774-.16c.098.025.044.002.5.204l.727.322.009.005c.256.114.453.202.61.27.177-.296.354-.595.68-1.15l.003-.007c.39-.663.601-1.021.818-1.38a64.11 64.11 0 0 1-.545-.417l-.038-.03c-.207-.159-.412-.32-.616-.485-.404-.33-.43-.353-.536-.57a.909.909 0 0 1-.082-.519c.031-.222.032-1.384.002-1.604a.909.909 0 0 1 .094-.54c.149-.289.848-.811 1.856-1.505-.248-.413-1.263-2.054-1.434-2.335zm-6.578 8.81a3.634 3.634 0 1 1 0-7.268 3.634 3.634 0 0 1 0 7.269zm0-1.816a1.817 1.817 0 1 0 0-3.635 1.817 1.817 0 0 0 0 3.635z"/></symbol><symbol viewBox="0 0 22 22" id="i-tax-setup" xmlns="http://www.w3.org/2000/svg"><path d="M4.356 8.663V4.065a.895.895 0 0 1 1.79 0v4.661a2.686 2.686 0 0 1-.076 5.027l.076 4.169a.895.895 0 1 1-1.79.032l-.076-4.191a2.686 2.686 0 0 1 .076-5.1zm.804 3.457h.003a.895.895 0 1 0-.003 0zm5.014 4.323a2.686 2.686 0 0 1 0-5.066V4.065a.895.895 0 1 1 1.79 0v7.312a2.686 2.686 0 0 1 0 5.066v1.495a.895.895 0 1 1-1.79 0v-1.495zm5.817-10.45V4.065a.895.895 0 1 1 1.79 0v1.96a2.686 2.686 0 0 1 0 5.031v6.882a.895.895 0 1 1-1.79 0v-6.85a2.686 2.686 0 0 1 0-5.095zm.85 3.442a.895.895 0 1 0 0-1.79.895.895 0 0 0 0 1.79zm-5.772 5.37a.895.895 0 1 0 0-1.79.895.895 0 0 0 0 1.79z"/></symbol><symbol viewBox="0 0 12 12" id="i-tick" xmlns="http://www.w3.org/2000/svg"><path d="M1.5 5.5l3 3 6-6" stroke-width="2" stroke="#000" fill="none"/></symbol><symbol viewBox="0 0 22 22" id="i-tools" xmlns="http://www.w3.org/2000/svg"><path d="M4.143 7.035v7.93l6.867 3.965 6.867-3.966V7.035L11.01 3.071 4.143 7.035zM19.67 6v10l-8.66 5-8.66-5V6l8.66-5 8.66 5zm-8.66 8.586a3.586 3.586 0 1 1 0-7.172 3.586 3.586 0 0 1 0 7.172zm0-1.793a1.793 1.793 0 1 0 0-3.586 1.793 1.793 0 0 0 0 3.586z"/></symbol><symbol viewBox="0 0 13 16" id="i-trash-can" xmlns="http://www.w3.org/2000/svg"><path d="M12.887 3.029c.133.481.182.433-.263.429H.385c-.446 0-.393.052-.264-.43l.15-.525c.106-.377.389-.413.781-.478l2.153-.271c.268-.049.268-.049.373-.276C3.93.682 4.035.22 4.42.22h4.168c.385 0 .494.462.847 1.255.104.23.104.23.372.275l2.149.27c.396.066.663.066.769.442 0 0 .065.202.162.567zm-1.389 1.723c.673 0 .705.086.664.596l-.756 9.818c-.065.499-.114.6-.709.6H2.312c-.595 0-.644-.101-.709-.6L.846 5.348c-.04-.506-.008-.595.664-.595h9.988z" fill-rule="evenodd"/></symbol><symbol viewBox="0 0 12 12" id="i-tree-closed" xmlns="http://www.w3.org/2000/svg"><path d="M5 2l4 4-4 4z" fill-rule="evenodd"/></symbol><symbol viewBox="0 0 12 12" id="i-tree-open" xmlns="http://www.w3.org/2000/svg"><path d="M2 5h8L6 9z" fill-rule="evenodd"/></symbol><symbol viewBox="0 0 17 15" id="i-twitter-standalone" xmlns="http://www.w3.org/2000/svg"><title>twitter-standalone</title><path d="M14.9 2.7a3.5 3.5 0 0 0 1.5-2 6.8 6.8 0 0 1-2.2.9A3.4 3.4 0 0 0 11.7.5 3.5 3.5 0 0 0 8.3 4a3.7 3.7 0 0 0 .1.8 9.7 9.7 0 0 1-7.1-3.7 3.6 3.6 0 0 0 1 4.8 3.4 3.4 0 0 1-1.5-.5 3.5 3.5 0 0 0 2.7 3.5H2a3.5 3.5 0 0 0 3.2 2.5A6.8 6.8 0 0 1 .9 13H.1a9.6 9.6 0 0 0 5.3 1.6c6.3 0 9.8-5.4 9.8-10.1V4a7.1 7.1 0 0 0 1.7-1.8 6.7 6.7 0 0 1-2 .5z"/></symbol><symbol viewBox="0 0 10 11" id="i-undo" xmlns="http://www.w3.org/2000/svg"><path d="M5.346 3.218V4.55L2.577 2.525 5.347.5v1.363C7.668 2.035 9.5 3.928 9.5 6.238c0 2.422-2.015 4.387-4.5 4.387S.5 8.66.5 6.237A4.2 4.2 0 0 1 .513 5.9h1.391a2.93 2.93 0 0 0-.02.337C1.884 7.915 3.28 9.275 5 9.275c1.72 0 3.116-1.36 3.116-3.038 0-1.563-1.212-2.85-2.77-3.018v-.001z"/></symbol><symbol viewBox="0 0 17 17" id="i-warning" xmlns="http://www.w3.org/2000/svg"><path d="M14.27 15.5H2.737a1.863 1.863 0 0 1-1.864-1.065 1.775 1.775 0 0 1 .178-2.041l5.945-9.938c.302-.562.871-.93 1.508-.976a1.863 1.863 0 0 1 1.508.976l5.945 9.938c.622 1.065.444 1.775.178 2.13a1.952 1.952 0 0 1-1.863.976zM8.238 3.343l-5.945 9.85c-.089.266-.178.443-.089.532.089.089.178.177.533.177h12.067a1.242 1.242 0 0 0-.178-.62L8.68 3.254l-.177-.178-.266.266zm.089 2.485a.71.71 0 0 1 .71.532v3.283c0 .266-.267.533-.71.533-.444 0-.71-.267-.71-.533V6.36c0-.266.355-.532.71-.532zm0 6.655a.71.71 0 1 1 0-1.42.71.71 0 0 1 0 1.42z"/></symbol><symbol viewBox="0 0 42 42" id="i-youtube" xmlns="http://www.w3.org/2000/svg"><title>youtube</title><path d="M18.9 24v-6l5.3 3zm11.8-7.9a2.5 2.5 0 0 0-1.8-1.8c-1.6-.4-7.9-.4-7.9-.4s-6.3 0-7.9.4a2.5 2.5 0 0 0-1.8 1.8 26.7 26.7 0 0 0-.4 4.9 26.7 26.7 0 0 0 .4 4.9 2.5 2.5 0 0 0 1.8 1.8c1.6.4 7.9.4 7.9.4s6.3 0 7.9-.4a2.5 2.5 0 0 0 1.8-1.8 26.7 26.7 0 0 0 .4-4.9 26.7 26.7 0 0 0-.4-4.9z" data-name="youtube"/></symbol></svg>