<svg width="35" height="35" xmlns="http://www.w3.org/2000/svg"><g fill="none"><path d="M7.517 20.2h20.3v-5.367h-20.3V20.2zm0 1.167v5.366h20.3v-5.366h-20.3zM6.933 7.133H28.4c.322 0 .583.262.583.584v19.6a.584.584 0 0 1-.583.583H6.933a.583.583 0 0 1-.583-.583v-19.6c0-.322.261-.584.583-.584z" fill="#002C5F"/><path d="M27 .25a7.074 7.074 0 0 0-7 7 7.074 7.074 0 0 0 7 7 7.074 7.074 0 0 0 7-7 7.074 7.074 0 0 0-7-7" fill="#A3B536"/><path fill="#FFF" d="M30.267 6.727h-2.744V3.983h-1.046v2.744h-2.744v1.046h2.744v2.744h1.046V7.773h2.744V6.727"/></g></svg>
