<svg width="35" height="35" xmlns="http://www.w3.org/2000/svg"><g fill="none"><path d="M27.817 20.167V14.8h-20.3v5.367h20.3zm0-6.534V8.267h-20.3v5.366h20.3zM6.933 7.1H28.4c.322 0 .583.261.583.583v19.6a.584.584 0 0 1-.583.584H6.933a.583.583 0 0 1-.583-.584v-19.6c0-.322.261-.583.583-.583z" fill="#002C5F"/><path d="M27 34.75a7.074 7.074 0 0 1-7-7 7.074 7.074 0 0 1 7-7c3.85.04 6.96 3.15 7 7a7.074 7.074 0 0 1-7 7" fill="#A3B536"/><path fill="#FFF" d="M30.267 28.273h-2.744v2.744h-1.046v-2.744h-2.744v-1.046h2.744v-2.744h1.046v2.744h2.744v1.046"/></g></svg>
