<svg width="25" height="24" xmlns="http://www.w3.org/2000/svg"><path d="M20.886 6.535h-3.869a.475.475 0 0 1-.475-.475V1.938H4.188v20.051h16.698V6.535zM3.594.75h13.458a.59.59 0 0 1 .421.176l4.428 4.46c.11.112.173.262.173.419v16.778a.594.594 0 0 1-.594.594H3.594A.594.594 0 0 1 3 22.583V1.343c0-.327.266-.593.594-.593zm8.7 8.295c-.02.46-.03.865-.06 1.27a.477.477 0 0 0 .127.381c.673.78 1.473 1.418 2.258 2.075.146.122.282.079.426.046a8.195 8.195 0 0 1 2.352-.217c.44.028.866.118 1.208.428.408.37.492.91.237 1.479-.2.445-.643.69-1.17.643-.92-.081-1.716-.495-2.43-1.034-.461-.35-.868-.427-1.413-.23-.772.278-1.549.54-2.305.861-.181.078-.253.208-.31.38-.282.848-.616 1.673-1.13 2.413-.175.252-.38.475-.633.65-.434.297-.893.328-1.248.084-.503-.346-.711-.831-.58-1.358.075-.3.223-.559.433-.79.651-.72 1.459-1.22 2.316-1.644a.72.72 0 0 0 .42-.511c.244-.962.475-1.926.594-2.914a.568.568 0 0 0-.147-.493c-.662-.76-1.258-1.567-1.613-2.52-.17-.454-.244-.926.023-1.38.367-.623 1.534-.854 2.073-.074.355.514.461 1.095.523 1.692.029.272.036.546.049.763zm3.428 4.453c.579.418 1.169.783 1.879.893.326.05.54-.062.617-.339.078-.277-.038-.504-.366-.594-.707-.192-1.417-.12-2.13.04zm-5.431 1.915c-.502.222-.936.531-1.35.868a1.93 1.93 0 0 0-.492.574c-.167.31-.149.54.057.715.263.224.48.082.665-.104.566-.575.83-1.318 1.12-2.053zm1.195-5.741c.082-.857.038-1.622-.214-2.369a1.021 1.021 0 0 0-.11-.215c-.145-.23-.351-.276-.605-.204-.25.07-.33.236-.32.477.006.165.044.318.105.47.262.652.643 1.231 1.144 1.84zm.167 3.981c-.028.14.02.206.16.152.604-.232 1.213-.45 1.833-.633.144-.043.152-.118.04-.21-.499-.41-.978-.844-1.44-1.297-.096-.095-.167-.096-.196.063-.12.645-.22 1.294-.397 1.925z"/></svg>
