<svg width="25" height="24" xmlns="http://www.w3.org/2000/svg"><path d="M11.346 18.844a6.935 6.935 0 0 1 6.798-9.481V6.13H1.356v12.714h9.99zm7.953-9.326A6.935 6.935 0 1 1 11.935 20H.779a.578.578 0 0 1-.578-.578V1.478A.576.576 0 0 1 .778.9h17.944c.319 0 .577.259.577.578v8.04zM3.001 4.268A.925.925 0 1 0 3 2.42a.925.925 0 0 0 0 1.85zm3.583 0a.925.925 0 1 0 0-1.849.925.925 0 0 0 0 1.85zm3.583 0a.925.925 0 1 0 0-1.849.925.925 0 0 0 0 1.85zm7.628 9.818a.734.734 0 1 0 0-1.469.734.734 0 0 0 0 1.469zm0 .979a.735.735 0 0 0-.735.734v3.097a.734.734 0 0 0 1.469 0v-3.179a.734.734 0 0 0-.734-.652z"/></svg>
