<svg width="25" height="24" xmlns="http://www.w3.org/2000/svg"><path d="M12.52 23.54C6.158 23.54 1 18.382 1 12.02 1 5.658 6.158.5 12.52.5c6.362 0 11.52 5.158 11.52 11.52a11.52 11.52 0 0 1-11.52 11.52zm-.184-15.114a4.147 4.147 0 0 0-1.198-2.765 1.475 1.475 0 0 0-.922-.553 2.396 2.396 0 0 0-2.765 2.673c.1.696.285 1.377.553 2.027a16.681 16.681 0 0 0 1.936 3.779 21.289 21.289 0 0 0 2.856 3.041 8.49 8.49 0 0 0 1.844 1.29c.384.248.833.377 1.29.369a3.318 3.318 0 0 0 2.12-1.014c.5-.412.581-1.147.184-1.659a4.977 4.977 0 0 0-1.935-1.843 2.212 2.212 0 0 0-2.12-.184c-.45.185-.961.151-1.383-.092a3.502 3.502 0 0 1-1.75-2.673.922.922 0 0 1 .552-1.014c.509-.263.802-.813.738-1.382z"/></svg>
