<svg width="35" height="35" xmlns="http://www.w3.org/2000/svg"><g fill="none"><path d="M27.817 21.333h-20.3V26.7h20.3v-5.367zm-20.3-7.7h20.3V8.267h-20.3v5.366zM6.933 7.1H28.4c.322 0 .583.261.583.583v19.6a.584.584 0 0 1-.583.584H6.933a.583.583 0 0 1-.583-.584v-19.6c0-.322.261-.583.583-.583z" fill="#002C5F"/><path d="M27 6.75a7.074 7.074 0 0 0-7 7 7.074 7.074 0 0 0 7 7 7.074 7.074 0 0 0 7-7 7.074 7.074 0 0 0-7-7" fill="#D0021B"/><path fill="#FFF" d="M29.912 15.924l-1.94-1.942 1.94-1.94-.738-.738-1.942 1.94-1.94-1.941-.738.74 1.94 1.94-1.941 1.94.74.74 1.94-1.941 1.94 1.94.74-.738"/></g></svg>
