<svg width="13" height="13" xmlns="http://www.w3.org/2000/svg" xmlns:xlink="http://www.w3.org/1999/xlink"><defs><path d="M9.594 11.731V7.5a.625.625 0 1 1 1.25 0v4.856c0 .346-.28.625-.625.625H1.045a.625.625 0 0 1-.625-.625V3.182c0-.345.28-.625.625-.625h4.306a.625.625 0 0 1 0 1.25H1.67v7.924h7.923zm1.92-9.197L6.092 7.942a.625.625 0 0 1-.883-.884l5.378-5.365H8.002a.625.625 0 1 1 0-1.25h4.137c.345 0 .625.28.625.625v4.137a.625.625 0 0 1-1.25 0v-2.67z" id="a"/></defs><use fill="#0064D6" fill-rule="nonzero" xlink:href="#a" transform="translate(-.15)"/></svg>