<svg width="18" height="18" xmlns="http://www.w3.org/2000/svg"><g fill-rule="nonzero" fill="none"><path d="M9 0a9.095 9.095 0 0 0-9 9 9.095 9.095 0 0 0 9 9 9.095 9.095 0 0 0 9-9 9.095 9.095 0 0 0-9-9z" fill="#C9282D"/><path d="M9.225 4.457c-.563 0-1.125.354-1.125.708V9.32c0 .354.422.708 1.125.708.563 0 1.125-.354 1.125-.708V5.165c0-.443-.563-.708-1.125-.708zM9.225 13.371c.563 0 1.125-.417 1.125-1.114 0-.557-.422-1.114-1.125-1.114-.563 0-1.125.418-1.125 1.114 0 .697.563 1.114 1.125 1.114z" fill="#FFF"/></g></svg>