<svg data-name="Layer 2" xmlns="http://www.w3.org/2000/svg" width="16" height="16" viewBox="0 0 16 16"><path d="M8 .5A7.6 7.6 0 0 0 .5 8 7.6 7.6 0 0 0 8 15.5h1.5a1.2 1.2 0 0 1 0-1.2c.2-.4.9-1.6.2-1.9s-.5-.5-.9-1a1.2 1.2 0 0 1-.3-.6 1.6 1.6 0 0 1 .4-1v-.4l-.3-.3h-.2l-.7-.3-.2-.3h-.4l-1.4-.7a.7.7 0 0 1-.5-.7 1.5 1.5 0 0 0-.5-.7c-.1-.2-.1-.5-.2-.4s.3.8.2.9a1.4 1.4 0 0 1-.3-.5 3 3 0 0 0-.3-1c-.5-.9.1-1.4.2-1.9s.4.2.2-.1a5.3 5.3 0 0 1-.1-1.2 1.7 1.7 0 0 0-1 .3 4.6 4.6 0 0 1 1.2-1 .9.9 0 0 1 1.2.1c.4.2.4.1.3 0s.1-.2.4-.1a1.9 1.9 0 0 0 .9.4c.5 0 .1 0 .2.1s-.1.1-.4.3 0 .2.6.6.4-.3.3-.6.4-.1.4-.1a1.3 1.3 0 0 0 .5.1l1 .7c-.9.6-.3.6-.2.7s-.3.3-.3.3-.2 0-.3.1a.1.1 0 0 0 0 .2.7.7 0 0 0-.5.9l-.5.6c-.1.2.3.7.1.7a1.3 1.3 0 0 0-1.4-.4.8.8 0 0 0-.6 1.2c.4.8 1-.2 1.2-.1a1.2 1.2 0 0 1 0 .6.5.5 0 0 1 .5.6c0 .6.8.6 1 .6a5.6 5.6 0 0 0 .8-.5 1.1 1.1 0 0 1 1.1.1 5.8 5.8 0 0 0 1.3.5c.2.1.1.5.3.6a3.9 3.9 0 0 1 1.4.3c.3.3-.9 2.2-1.3 2.5s-.5.7-.9 1l-1.4 1a4.4 4.4 0 0 0-.7.9 7.4 7.4 0 0 0 5.9-7.3A7.6 7.6 0 0 0 8 .5zm1.8 7a.8.8 0 0 1-.8-.1 1.5 1.5 0 0 0-1-.2.2.2 0 0 1 .2-.2 4 4 0 0 1 1.2.4h.4c.2.1.1.1 0 .1zM7.3 1.2c-.1 0 0-.1.1-.2V.8c.2 0 .7-.1.6.2a.5.5 0 0 1-.7.2zm1.3 1h-.5c.3-.4-.1-.5-.4-.6s-.4-.1-.2-.1a1.3 1.3 0 0 1 .7.1 2.1 2.1 0 0 1 .6.4c0 .2 0 .2-.2.2zm1.6-.1a2.4 2.4 0 0 1-1-.5 1.9 1.9 0 0 0-1.1-.4C8 1.1 8 1 8.2.8a1.4 1.4 0 0 1 1.1.1.9.9 0 0 1 .7.6c0 .3.4.5.2.6z"/></svg>
