<svg width="17" height="15" xmlns="http://www.w3.org/2000/svg"><path d="M15.162 7.195h.006v2.866h1.11c.268 0 .486.217.486.486v3.548a.486.486 0 0 1-.486.486H12.73a.486.486 0 0 1-.486-.486v-3.548c0-.269.218-.486.486-.486h1.272V7.917H9.165v2.144h1.109c.268 0 .486.217.486.486v3.548a.486.486 0 0 1-.486.486H6.726a.486.486 0 0 1-.486-.486v-3.548c0-.269.218-.486.486-.486h1.272V7.917H3.16v2.144h1.11c.268 0 .486.217.486.486v3.548a.486.486 0 0 1-.486.486H.722a.486.486 0 0 1-.486-.486v-3.548c0-.269.218-.486.486-.486h1.272V7.917H1.99V6.75h6.008V4.756H6.726a.486.486 0 0 1-.486-.486V.722c0-.268.218-.486.486-.486h3.548c.268 0 .486.218.486.486V4.27a.486.486 0 0 1-.486.486h-1.11V6.75h5.998v.445z" fill="#002C5F"/></svg>
