<svg width="17" height="19" xmlns="http://www.w3.org/2000/svg"><path d="M.008 10.195v-7.87C-.082 1.252.634.358 1.618.09 1.885 0 2.064 0 2.332 0h12.342C15.927 0 17 .984 17 2.236v10.732c0 1.252-.894 2.236-2.146 2.325H6.178c-.268 0-.536.09-.804.269-1.52 1.073-3.041 2.056-4.562 3.13-.178.09-.357.268-.536.09a.966.966 0 0 1-.268-.627v-7.96zm8.227-.804h.627c.178 0 .357-.09.357-.269v-.09c.09-.446.358-.804.716-.983.179-.09.357-.179.447-.358.715-.536 1.073-1.52.894-2.414a1.994 1.994 0 0 0-1.61-1.79c-.894-.267-1.788-.267-2.683.09-.626.358-1.162.984-1.252 1.789-.09.358 0 .447.358.447h.984c.268 0 .536-.179.536-.358.18-.447.626-.626 1.074-.536.447.09.805.447.805.894.089.626-.269 1.163-.716 1.52-.358.18-.715.358-.984.627a1.65 1.65 0 0 0-.447 1.073c0 .179.09.358.268.358h.626zm0 2.414c.984 0 .984 0 .895-.983v-.09c0-.268-.18-.447-.358-.447H7.7c-.179 0-.447.09-.447.358v.09c0 1.162.179 1.072.983 1.072z"/></svg>
