<svg width="20" height="18" xmlns="http://www.w3.org/2000/svg"><path d="M8.387 1.604H1.604v14.87h6.783V12.56c0-.174 0-.435.087-.522a.94.94 0 0 1 .609-.26c.26 0 .434.26.521.521v4.609c0 .521-.26.782-.782.782h-7.74c-.521 0-.782-.26-.782-.782V1.083C.3.56.56.3 1.083.3h7.739c.608 0 .782.174.782.783v4.434c0 .261-.087.522-.434.696a.458.458 0 0 1-.61-.174c-.086-.174-.173-.348-.173-.609V1.604z"/><path d="M17.257 9.691H6.56c-.522 0-.783-.26-.783-.695 0-.348.348-.609.783-.609h10.435c-.261-.26-.522-.609-.783-.87-.609-.695-1.304-1.304-2-2-.348-.347-.348-.695-.087-.956s.609-.261.957.087c1.39 1.304 2.695 2.522 4.087 3.826.434.435.434.783 0 1.13a85.024 85.024 0 0 1-4.087 3.826c-.348.348-.696.348-.957.087-.26-.26-.26-.695.087-1.043.87-.87 1.826-1.74 2.696-2.609.087 0 .174-.087.348-.174z"/></svg>
