<svg width="35" height="35" xmlns="http://www.w3.org/2000/svg"><g fill="none"><path d="M7.517 13.633h20.3V8.267h-20.3v5.366zm0 7.7V26.7h20.3v-5.367h-20.3zM6.933 7.1H28.4c.322 0 .583.261.583.583v19.6a.584.584 0 0 1-.583.584H6.933a.583.583 0 0 1-.583-.584v-19.6c0-.322.261-.583.583-.583z" fill="#002C5F"/><path d="M27 6.75a7.074 7.074 0 0 0-7 7 7.074 7.074 0 0 0 7 7 7.074 7.074 0 0 0 7-7 7.074 7.074 0 0 0-7-7" fill="#A3B536"/><path fill="#FFF" d="M27.064 9.55l-3.797 3.54h3.089v4.442h1.288V13.09h3.09z"/></g></svg>
