<svg width="17" height="17" xmlns="http://www.w3.org/2000/svg"><path d="M8.5 0a8.5 8.5 0 1 1 0 17 8.5 8.5 0 0 1 0-17zm0 16.15a7.65 7.65 0 1 0 0-15.3 7.65 7.65 0 0 0 0 15.3zM4.307 5.185V6.38H3.012V5.185h1.295zm0 1.467v4.463H3.012V6.652h1.295zm3.23 1.685H6.353v-.514c0-.18-.014-.301-.04-.365a.15.15 0 0 0-.15-.096c-.073 0-.122.028-.146.084-.025.056-.038.182-.038.377v2.105c0 .159.019.278.056.358.038.08.093.12.165.12.085 0 .143-.042.173-.125.03-.083.045-.24.045-.471v-.531h1.12a7.565 7.565 0 0 1-.035.802c-.022.178-.091.36-.209.548-.117.187-.27.328-.459.423a1.545 1.545 0 0 1-.7.143c-.355 0-.636-.065-.844-.196a1.064 1.064 0 0 1-.44-.552c-.086-.236-.13-.572-.13-1.007V8.172c0-.379.036-.664.106-.857.071-.193.221-.365.452-.516.23-.152.51-.227.84-.227.328 0 .608.075.84.225.233.15.388.34.465.568.076.229.115.553.115.972zm3.22-.118v1.093c0 .402-.02.696-.057.883a1.281 1.281 0 0 1-.24.525 1.093 1.093 0 0 1-.471.36 1.76 1.76 0 0 1-.661.115c-.279 0-.514-.033-.707-.099a.956.956 0 0 1-.45-.3 1.22 1.22 0 0 1-.229-.483c-.045-.19-.068-.474-.068-.853V8.317c0-.415.041-.739.124-.972.083-.233.233-.42.449-.562.215-.14.491-.211.828-.211.282 0 .524.045.726.136.203.09.359.209.469.355.11.145.185.295.226.45.04.155.06.39.06.706zm-1.258-.336c0-.229-.012-.373-.034-.432-.023-.06-.072-.09-.147-.09-.074 0-.124.03-.15.09-.024.06-.037.203-.037.432v2.014c0 .211.013.348.038.412s.073.096.146.096c.075 0 .124-.029.148-.087.024-.059.036-.184.036-.377V7.883zm2.95-1.23l-.021.41a.985.985 0 0 1 .335-.369.846.846 0 0 1 .456-.122.82.82 0 0 1 .529.164c.137.11.225.249.264.416.04.167.06.445.06.835v3.128h-1.258v-3.09c0-.308-.01-.495-.028-.562-.019-.068-.07-.101-.156-.101-.089 0-.145.039-.168.116-.023.077-.034.284-.034.62v3.017H11.17V6.652h1.28z"/></svg>
