<svg width="22" height="22" xmlns="http://www.w3.org/2000/svg"><path d="M2.815 19.609h16.366V2.38H2.815v17.229zm1.693-1.783h12.98V4.162H4.508v13.664zm9.594-10.99v4.998c0 .492.38.89.846.89.468 0 .847-.398.847-.89V6.836c0-.493-.379-.892-.847-.892-.467 0-.846.399-.846.892zm-3.95 1.478v3.52c0 .492.378.89.846.89.468 0 .847-.398.847-.89v-3.52c0-.492-.38-.891-.847-.891-.468 0-.847.399-.847.89zm-3.95 1.738v1.826c0 .493.379.891.846.891.467 0 .846-.398.846-.89v-1.827c0-.494-.38-.892-.846-.892-.467 0-.847.398-.847.892zm0 5.957h9.587v-1.79H6.2v1.79z" fill-rule="evenodd"/></svg>
