<svg width="35" height="37" xmlns="http://www.w3.org/2000/svg"><g fill="none" fill-rule="evenodd"><path d="M28.375 22.625H6.625v5.75h21.75v-5.75zm-21.75-8.25h21.75v-5.75H6.625v5.75zm-.625-7h23c.345 0 .625.28.625.625v21c0 .345-.28.625-.625.625H6A.625.625 0 0 1 5.375 29V8c0-.345.28-.625.625-.625z" fill="#002C5F"/><path d="M27.5 7a7.579 7.579 0 0 0-7.5 7.5 7.579 7.579 0 0 0 7.5 7.5 7.579 7.579 0 0 0 7.5-7.5A7.579 7.579 0 0 0 27.5 7" fill="#D0021B"/><path fill="#FFF" fill-rule="nonzero" d="M30.62 16.829l-2.078-2.08 2.079-2.078-.792-.792-2.08 2.079-2.078-2.08-.792.793 2.079 2.079-2.08 2.079.793.792 2.079-2.08 2.079 2.08.792-.792"/></g></svg>