<svg width="22" height="22" xmlns="http://www.w3.org/2000/svg"><path d="M19.243 10.261l-.294.22c.01.328.01.729 0 1.056.135.109.308.245.512.403l.037.03.722.552c.67.51.845 1.283.395 2.026-.263.434-.472.788-.936 1.577-.4.68-.576.98-.8 1.353-.469.78-1.158.989-1.99.63l-.807-.357-.01-.005-.603-.268a8.087 8.087 0 0 1-1.054.586 45.04 45.04 0 0 0-.122 1.222c-.052.657-.192 1.086-.65 1.482a.909.909 0 0 1-.595.221H8.892a.909.909 0 0 1-.61-.235c-.426-.386-.613-.875-.64-1.458a13.736 13.736 0 0 0-.149-1.327 7.96 7.96 0 0 1-.903-.523 66.77 66.77 0 0 0-1.46.627c-.947.421-1.571.24-2.104-.647a308.25 308.25 0 0 1-1.436-2.417l-.229-.388c-.532-.9-.358-1.621.512-2.21l.731-.494.012-.008.547-.373a20.17 20.17 0 0 1 0-1.1 71.981 71.981 0 0 0-.555-.396l-.02-.015-.758-.537c-.702-.498-.88-1.292-.43-2.04.244-.405.439-.731.873-1.467.414-.699.598-1.01.83-1.397.528-.876 1.218-1.072 2.16-.651l.772.345.027.012.546.24a8.25 8.25 0 0 1 .987-.56l.046-.437.017-.154.086-.863c.102-1.023.641-1.508 1.676-1.513 1.08-.004 2.17-.004 3.267 0 1.014.004 1.585.525 1.677 1.53.016.171.018.208.06.942l.028.468a7.85 7.85 0 0 1 1.045.587l.369-.157c.39-.166.868-.378 1.165-.516.734-.339 1.475-.106 1.886.576l.131.217.136.222c.17.28 1.292 2.095 1.479 2.41.544.923.245 1.813-.425 2.27-.254.175-.663.466-.995.71zm-1.61-4.443l-.112-.185c-1.044.477-1.86.817-2.147.821a.909.909 0 0 1-.566-.185 6.14 6.14 0 0 0-1.527-.85.909.909 0 0 1-.531-.544c-.073-.206-.085-.347-.139-1.297a67.063 67.063 0 0 0-.045-.758 372.162 372.162 0 0 0-3.026 0l-.073.744-.017.157c-.029.275-.054.5-.074.67-.057.463-.055.451-.143.623a.909.909 0 0 1-.473.43 6.109 6.109 0 0 0-1.475.837.909.909 0 0 1-.6.185c-.196-.01-.19-.007-.663-.209a56.913 56.913 0 0 1-.698-.306l-.027-.013-.699-.312c-.201.338-.387.65-.757 1.277-.247.419-.496.837-.745 1.254l.546.388.02.014c1.016.722 1.044.742 1.167.908a.909.909 0 0 1 .17.673c-.034.237-.034 1.479 0 1.715a.909.909 0 0 1-.193.705c-.153.155-.153.155-.187.175l-.085.063-.234.163-.663.452-.013.008-.614.416.145.247c.448.76.898 1.52 1.352 2.277.334-.147.734-.321 1.062-.46.23-.095.421-.174.57-.23.09-.035.164-.062.228-.083.203-.065.278-.083.481-.058a.91.91 0 0 1 .44.181 6.07 6.07 0 0 0 1.324.772.926.926 0 0 1 .36.278c.285.367.441 1.502.485 2.411h3.024l.002-.033c.068-.835.18-1.869.266-2.07a.909.909 0 0 1 .512-.49c.556-.21 1.078-.5 1.55-.86a.909.909 0 0 1 .774-.16c.098.025.044.002.5.204l.727.322.009.005c.256.114.453.202.61.27.177-.296.354-.595.68-1.15l.003-.007c.39-.663.601-1.021.818-1.38a64.11 64.11 0 0 1-.545-.417l-.038-.03c-.207-.159-.412-.32-.616-.485-.404-.33-.43-.353-.536-.57a.909.909 0 0 1-.082-.519c.031-.222.032-1.384.002-1.604a.909.909 0 0 1 .094-.54c.149-.289.848-.811 1.856-1.505-.248-.413-1.263-2.054-1.434-2.335zm-6.578 8.81a3.634 3.634 0 1 1 0-7.268 3.634 3.634 0 0 1 0 7.269zm0-1.816a1.817 1.817 0 1 0 0-3.635 1.817 1.817 0 0 0 0 3.635z"/></svg>
