<svg width="22" height="22" xmlns="http://www.w3.org/2000/svg"><path d="M4.356 8.663V4.065a.895.895 0 0 1 1.79 0v4.661a2.686 2.686 0 0 1-.076 5.027l.076 4.169a.895.895 0 1 1-1.79.032l-.076-4.191a2.686 2.686 0 0 1 .076-5.1zm.804 3.457h.003a.895.895 0 1 0-.003 0zm5.014 4.323a2.686 2.686 0 0 1 0-5.066V4.065a.895.895 0 1 1 1.79 0v7.312a2.686 2.686 0 0 1 0 5.066v1.495a.895.895 0 1 1-1.79 0v-1.495zm5.817-10.45V4.065a.895.895 0 1 1 1.79 0v1.96a2.686 2.686 0 0 1 0 5.031v6.882a.895.895 0 1 1-1.79 0v-6.85a2.686 2.686 0 0 1 0-5.095zm.85 3.442a.895.895 0 1 0 0-1.79.895.895 0 0 0 0 1.79zm-5.772 5.37a.895.895 0 1 0 0-1.79.895.895 0 0 0 0 1.79z"/></svg>
