<svg width="13" height="16" xmlns="http://www.w3.org/2000/svg"><path d="M12.887 3.029c.133.481.182.433-.263.429H.385c-.446 0-.393.052-.264-.43l.15-.525c.106-.377.389-.413.781-.478l2.153-.271c.268-.049.268-.049.373-.276C3.93.682 4.035.22 4.42.22h4.168c.385 0 .494.462.847 1.255.104.23.104.23.372.275l2.149.27c.396.066.663.066.769.442 0 0 .065.202.162.567zm-1.389 1.723c.673 0 .705.086.664.596l-.756 9.818c-.065.499-.114.6-.709.6H2.312c-.595 0-.644-.101-.709-.6L.846 5.348c-.04-.506-.008-.595.664-.595h9.988z" fill-rule="evenodd"/></svg>
