<svg width="17" height="17" xmlns="http://www.w3.org/2000/svg"><path d="M14.27 15.5H2.737a1.863 1.863 0 0 1-1.864-1.065 1.775 1.775 0 0 1 .178-2.041l5.945-9.938c.302-.562.871-.93 1.508-.976a1.863 1.863 0 0 1 1.508.976l5.945 9.938c.622 1.065.444 1.775.178 2.13a1.952 1.952 0 0 1-1.863.976zM8.238 3.343l-5.945 9.85c-.089.266-.178.443-.089.532.089.089.178.177.533.177h12.067a1.242 1.242 0 0 0-.178-.62L8.68 3.254l-.177-.178-.266.266zm.089 2.485a.71.71 0 0 1 .71.532v3.283c0 .266-.267.533-.71.533-.444 0-.71-.267-.71-.533V6.36c0-.266.355-.532.71-.532zm0 6.655a.71.71 0 1 1 0-1.42.71.71 0 0 1 0 1.42z"/></svg>
